<?xml version="1.0" encoding="utf-8"?>
<!-- Generator: Adobe Illustrator 19.2.1, SVG Export Plug-In . SVG Version: 6.00 Build 0)  -->
<svg version="1.1" xmlns="http://www.w3.org/2000/svg" xmlns:xlink="http://www.w3.org/1999/xlink" x="0px" y="0px"
	 viewBox="0 0 600 400" style="enable-background:new 0 0 600 400;" xml:space="preserve">
<style type="text/css">
	.st0{fill:#EDEDED;stroke:#1D1D1B;stroke-linecap:round;stroke-miterlimit:10;}
	.st1{fill:none;stroke:#1D1D1B;stroke-linecap:round;stroke-miterlimit:10;}
	.st2{font-family:'ArialMT';}
	.st3{font-size:9px;glyph-orientation-vertical:0;writing-mode:tb;}
	.st4{font-size:12px;}
	.st5{fill:none;stroke:#FF0000;stroke-miterlimit:10;stroke-dasharray:3,3;}
	.st6{fill:none;}
	.st7{fill:none;stroke:#FFFFFF;stroke-miterlimit:10;}
	.st8{fill:none;stroke:#FF0000;stroke-miterlimit:10;}
	.st9{fill:none;stroke:#FF0000;stroke-miterlimit:10;stroke-dasharray:3.0483,3.0483;}
	.st10{fill:#F9F19A;stroke:#000000;stroke-miterlimit:10;}
	.st11{font-family:'MyriadPro-Regular';}
	.st12{fill:#438DCC;stroke:#000000;stroke-miterlimit:10;}
	.st13{font-size:14.5344px;}
	.st14{font-size:14.5469px;}
	.st15{font-size:14.5468px;}
	.st16{fill:#5493CF;stroke:#000000;stroke-miterlimit:10;}
	.st17{font-size:14.5405px;}
	.st18{font-size:16.3704px;}
	.st19{font-size:14.5889px;}
	.st20{fill:none;stroke:#000000;stroke-linecap:round;stroke-miterlimit:10;}
	.st21{fill:none;stroke:#1D1D1B;stroke-linecap:square;stroke-miterlimit:10;}
</style>
<g id="tags_1_">
	<g id="Camada_12">
		<g id="XMLID_8_">
			<path class="st0" d="M231.5,143.9l-1,0l0-23.7l14.9,0l0,23.7l-1,0c1.2,0,1.9,1.8,1.3,3.3l-6.4,15.6c-0.5,1.1-2.2,1.1-2.7,0
				l-6.4-15.6C229.6,145.7,230.3,143.9,231.5,143.9z"/>
		</g>
		<path class="st1" d="M243.1,208.8"/>
		<text transform="matrix(1 0 0 1 238.3198 122.7177)" class="st2 st3">PCr</text>
	</g>
	<g id="Camada_11">
		<g id="XMLID_7_">
			<path class="st0" d="M420.1,163.3l0,1l-25.9-0.3l0.2-14.9l25.9,0.3l0,1c0-1.2,2-1.9,3.6-1.3l16.9,6.6c1.6,0.6,1.6,2.1,0,2.7
				l-17.1,6.2C422,165.2,420.1,164.5,420.1,163.3z"/>
		</g>
		<line class="st1" x1="441.7" y1="157.5" x2="454.5" y2="157.5"/>
		<line class="st1" x1="454.5" y1="170.3" x2="454.5" y2="157.5"/>
		<text transform="matrix(1 0 0 1 396.3909 161.9617)" class="st2 st4">REMr</text>
	</g>
	<g id="Camada_10">
		<g id="XMLID_6_">
			<path class="st0" d="M477.1,152.1l0,1l-25.9-0.3l0.2-14.9l25.9,0.3l0,1c0-1.2,2-1.9,3.6-1.3l16.9,6.6c1.6,0.6,1.6,2.1,0,2.7
				l-17.1,6.2C479,154,477.1,153.2,477.1,152.1z"/>
		</g>
		<line class="st1" x1="498.7" y1="146.2" x2="511.5" y2="146.2"/>
		<line class="st1" x1="511.5" y1="170" x2="511.5" y2="146.2"/>
		<text transform="matrix(1 0 0 1 454 149.9802)" class="st2 st4">REMw</text>
	</g>
	<g id="Camada_9">
		<g id="XMLID_13_">
			<path class="st0" d="M310.3,247.2l0,1l-25.9-0.3l0.2-14.9l25.9,0.3l0,1c0-1.2,2-1.9,3.6-1.3l16.9,6.6c1.6,0.6,1.6,2.1,0,2.7
				l-17.1,6.2C312.2,249.2,310.3,248.4,310.3,247.2z"/>
		</g>
		<line class="st1" x1="331.9" y1="241.4" x2="344.7" y2="241.4"/>
		<line class="st1" x1="344.7" y1="254.3" x2="344.7" y2="241.4"/>
		<text transform="matrix(1 0 0 1 287.6138 244.4004)" class="st2 st4">ACc</text>
	</g>
	<g id="Camada_17">
		<g id="XMLID_17_">
			<path class="st0" d="M234.2,247.2l0,1l-25.9-0.3l0.2-14.9l25.9,0.3l0,1c0-1.2,2-1.9,3.6-1.3l16.9,6.6c1.6,0.6,1.6,2.1,0,2.7
				l-17.1,6.2C236.2,249.2,234.2,248.4,234.2,247.2z"/>
		</g>
		<line class="st1" x1="255.8" y1="241.4" x2="268.7" y2="241.4"/>
		<line class="st1" x1="268.7" y1="254.3" x2="268.7" y2="241.4"/>
		<text transform="matrix(1 0 0 1 211.6088 244.4004)" class="st2 st4">ACw</text>
	</g>
	<g id="Camada_8">
		<g id="XMLID_4_">
			<path class="st0" d="M229.2,279l0,1l-25.9-0.3l0.2-14.9l25.9,0.3l0,1c0-1.2,2-1.9,3.6-1.3l16.9,6.6c1.6,0.6,1.6,2.1,0,2.7
				l-17.1,6.2C231.1,281,229.2,280.2,229.2,279z"/>
		</g>
		<line class="st1" x1="250.8" y1="273.2" x2="263.6" y2="273.2"/>
		<line class="st1" x1="256.6" y1="273.7" x2="263.6" y2="273.2"/>
		<text transform="matrix(1 0 0 1 207.8369 276.673)" class="st2 st4">ACr</text>
	</g>
	<g id="Camada_21">
		<g id="XMLID_11_">
			<path class="st0" d="M384,350l0,1l-25.9-0.3l0.2-14.9l25.9,0.3l0,1c0-1.2,2-1.9,3.6-1.3l16.9,6.6c1.6,0.6,1.6,2.1,0,2.7
				l-17.1,6.2C386,352,384,351.2,384,350z"/>
		</g>
		<line class="st1" x1="405.7" y1="344.2" x2="418.5" y2="344.2"/>
		<text transform="matrix(1 0 0 1 359.8045 347.6569)" class="st2 st4">Ula op</text>
	</g>
	<g id="Camada_7">
		<g id="XMLID_1_">
			<path class="st0" d="M243.6,25.5c0,1.2,2,2,3.5,1.4l17.1-6.2c1.6-0.6,1.6-2.1,0-2.7l-16.9-6.6c-1.6-0.6-3.5,0.1-3.6,1.3l0-1
				L218,11.3l-0.2,14.9l25.9,0.3L243.6,25.5z"/>
		</g>
		<line class="st1" x1="265.3" y1="19.7" x2="278.1" y2="19.7"/>
		<line class="st1" x1="278.1" y1="32.6" x2="278.1" y2="19.7"/>
	</g>
	<g id="Camada_6">
		<g id="XMLID_5_">
			<path class="st0" d="M411,27.1l0,1l-25.9-0.3l0.2-14.9l25.9,0.3l0,1c0-1.2,2-1.9,3.6-1.3l16.9,6.6c1.6,0.6,1.6,2.1,0,2.7
				l-17.1,6.2C413,29.1,411,28.3,411,27.1z"/>
		</g>
		<line class="st1" x1="432.6" y1="21.3" x2="445.5" y2="21.3"/>
		<line class="st1" x1="445.5" y1="34.2" x2="445.5" y2="21.3"/>
		<text transform="matrix(1 0 0 1 387.3265 24.9046)" class="st2 st4">RDMr</text>
	</g>
	<g id="Camada_15">
		<g id="XMLID_2_">
			<path class="st0" d="M410.5,95.7l0,1l-25.9-0.3l0.2-14.9l25.9,0.3l0,1c0-1.2,2-1.9,3.6-1.3l16.9,6.6c1.6,0.6,1.6,2.1,0,2.7
				L414,97C412.4,97.6,410.5,96.9,410.5,95.7z"/>
		</g>
		<line class="st1" x1="432.1" y1="89.9" x2="444.9" y2="89.9"/>
		<line class="st1" x1="444.9" y1="72.9" x2="444.9" y2="89.9"/>
		<text transform="matrix(1 0 0 1 387.3265 93.9929)" class="st2 st4">MEMr</text>
	</g>
	<g id="Camada_14">
		<g id="XMLID_9_">
			<path class="st0" d="M474,101.4l0,1l-25.9-0.3l0.2-14.9l25.9,0.3l0,1c0-1.2,2-1.9,3.6-1.3l16.9,6.6c1.6,0.6,1.6,2.1,0,2.7
				l-17.1,6.2C475.9,103.3,474,102.6,474,101.4z"/>
		</g>
		<line class="st1" x1="495.6" y1="95.6" x2="508.4" y2="95.6"/>
		<line class="st1" x1="508.4" y1="72.9" x2="508.4" y2="95.6"/>
		<text transform="matrix(1 0 0 1 449.7028 98.4467)" class="st2 st4">MEMw</text>
	</g>
	<g id="Camada_16">
		<g id="XMLID_12_">
			<path class="st0" d="M481,242.3l0,1l-25.9-0.3l0.2-14.9l25.9,0.3l0,1c0-1.2,2-1.9,3.6-1.3l16.9,6.6c1.6,0.6,1.6,2.1,0,2.7
				l-17.1,6.2C483,244.3,481,243.5,481,242.3z"/>
		</g>
		<line class="st1" x1="502.6" y1="236.5" x2="515.5" y2="236.5"/>
		<line class="st1" x1="515.5" y1="208.8" x2="515.5" y2="236.5"/>
		<text transform="matrix(1 0 0 1 456.2606 239.8234)" class="st2 st4">MEMw</text>
	</g>
	<g id="Camada_13">
		<g id="XMLID_10_">
			<path class="st0" d="M418.8,230.8l0,1l-25.9-0.3l0.2-14.9l25.9,0.3l0,1c0-1.2,2-1.9,3.6-1.3l16.9,6.6c1.6,0.6,1.6,2.1,0,2.7
				l-17.1,6.2C420.8,232.7,418.8,232,418.8,230.8z"/>
		</g>
		<line class="st1" x1="440.5" y1="225" x2="453.3" y2="225"/>
		<line class="st1" x1="453.3" y1="208.8" x2="453.3" y2="225"/>
		<text transform="matrix(1 0 0 1 396.3909 228.8266)" class="st2 st4">MEMr</text>
	</g>
	<g id="Camada_5">
		<g id="XMLID_3_">
			<path class="st0" d="M474.4,17.4l0,1l-25.9-0.3l0.2-14.9l25.9,0.3l0,1c0-1.2,2-1.9,3.6-1.3l16.9,6.6c1.6,0.6,1.6,2.1,0,2.7
				L478,18.8C476.4,19.3,474.4,18.6,474.4,17.4z"/>
		</g>
		<line class="st1" x1="508.9" y1="34.2" x2="508.9" y2="11.6"/>
		<line class="st1" x1="496.1" y1="11.6" x2="508.9" y2="11.6"/>
		<text transform="matrix(1 0 0 1 450.7028 15.3932)" class="st2 st4">RDMw</text>
	</g>
	<g id="Camada_18">
		<g id="XMLID_16_">
			<path class="st0" d="M298,143.1l1,0l0-23.7l-14.9,0l0,23.7l1,0c-1.2,0-1.9,1.8-1.3,3.3l6.4,15.6c0.5,1.1,2.2,1.1,2.7,0l6.4-15.6
				C299.9,144.9,299.2,143.1,298,143.1z"/>
		</g>
		<path class="st1" d="M294.9,208.8"/>
		<path class="st1" d="M290.3,162"/>
		<text transform="matrix(1 0 0 1 291.5891 122.7176)" class="st2 st3">PC+</text>
	</g>
	<g id="Camada_19">
		<g id="XMLID_14_">
			<path class="st0" d="M271.7,143.1l1,0l0-23.7l-14.9,0l0,23.7l1,0c-1.2,0-1.9,1.8-1.3,3.3l6.4,15.6c0.5,1.1,2.2,1.1,2.7,0
				l6.4-15.6C273.6,144.9,272.9,143.1,271.7,143.1z"/>
		</g>
		<path class="st1" d="M270.5,208.8"/>
		<path class="st1" d="M266.6,162"/>
		<text transform="matrix(1 0 0 1 224.0893 22.9044)" class="st2 st4">RIw</text>
		<text transform="matrix(1 0 0 1 265.2615 122.7176)" class="st2 st3">PCw</text>
	</g>
</g>
<g id="Camada_1">
	<g id="LC">
		<line class="st5" x1="26.8" y1="52.1" x2="26.8" y2="132"/>
		<line class="st5" x1="46.3" y1="68.9" x2="46.3" y2="132"/>
		<line class="st5" x1="52.7" y1="68.9" x2="52.7" y2="132"/>
		<line class="st5" x1="61.1" y1="68.9" x2="61.1" y2="132"/>
		<line class="st5" x1="70.3" y1="68.9" x2="70.3" y2="132"/>
		<line class="st5" x1="77.9" y1="68.9" x2="77.9" y2="132"/>
		<line class="st5" x1="85.5" y1="68.9" x2="85.5" y2="132"/>
		<line class="st5" x1="92.6" y1="68.9" x2="92.6" y2="132"/>
		<line class="st5" x1="102.4" y1="68.9" x2="102.4" y2="132"/>
		<line class="st5" x1="112.7" y1="68.9" x2="112.7" y2="132"/>
		<line class="st5" x1="121.9" y1="68.9" x2="121.9" y2="132"/>
		<line class="st5" x1="132.8" y1="68.9" x2="132.8" y2="132"/>
		<line class="st5" x1="140.4" y1="68.9" x2="140.4" y2="132"/>
		<line class="st5" x1="148.6" y1="68.9" x2="148.6" y2="132"/>
		<line class="st5" x1="155.6" y1="68.9" x2="155.6" y2="132"/>
		<line class="st5" x1="163.8" y1="68.9" x2="163.8" y2="132"/>
		<line class="st5" x1="22.8" y1="190.3" x2="22.8" y2="253.3"/>
		<line class="st5" x1="34.1" y1="190.6" x2="34.1" y2="253.7"/>
		<line class="st5" x1="45.5" y1="190.6" x2="45.5" y2="253.7"/>
		<line class="st5" x1="56.8" y1="190.6" x2="56.8" y2="253.7"/>
		<line class="st5" x1="155.6" y1="190.6" x2="155.6" y2="253.7"/>
		<line class="st5" x1="68.3" y1="190" x2="68.3" y2="253"/>
		<line class="st5" x1="78.9" y1="190" x2="78.9" y2="253"/>
		<line class="st5" x1="89.2" y1="190" x2="89.2" y2="253"/>
		<line class="st5" x1="99.7" y1="190" x2="99.7" y2="253"/>
		<line class="st5" x1="109.4" y1="190.6" x2="109.4" y2="253.7"/>
		<line class="st5" x1="120.3" y1="190.6" x2="120.3" y2="253.7"/>
		<line class="st5" x1="131.9" y1="190.6" x2="131.9" y2="253.7"/>
		<line class="st5" x1="144" y1="190.6" x2="144" y2="253.7"/>
		<line class="st5" x1="167.8" y1="190.6" x2="167.8" y2="253.7"/>
		<line class="st5" x1="181.7" y1="190.3" x2="181.4" y2="253.3"/>
		<line class="st6" x1="346.7" y1="260.8" x2="357.8" y2="260.8"/>
		<line class="st7" x1="361.1" y1="41.5" x2="363.8" y2="260.8"/>
		<line class="st7" x1="346.7" y1="260.8" x2="363.8" y2="260.8"/>
		<g id="Camada_22">
			<g>
				<g>
					<line class="st8" x1="327.5" y1="337.4" x2="329" y2="337.4"/>
					<line class="st9" x1="332.1" y1="337.4" x2="354.9" y2="337.4"/>
					<line class="st8" x1="356.4" y1="337.4" x2="357.9" y2="337.4"/>
				</g>
			</g>
			<g>
				<g>
					<line class="st8" x1="327.1" y1="349.7" x2="328.6" y2="349.7"/>
					<line class="st9" x1="331.6" y1="349.7" x2="354.5" y2="349.7"/>
					<line class="st8" x1="356" y1="349.7" x2="357.5" y2="349.7"/>
				</g>
			</g>
			<g>
				<g>
					<line class="st8" x1="327.5" y1="343.2" x2="329" y2="343.2"/>
					<line class="st9" x1="332.1" y1="343.2" x2="354.9" y2="343.2"/>
					<line class="st8" x1="356.4" y1="343.2" x2="357.9" y2="343.2"/>
				</g>
			</g>
		</g>
	</g>
	<g id="Clock">
		<circle class="st10" cx="24.1" cy="33.8" r="18.4"/>
		<text transform="matrix(1 0 0 1 9.4349 37.9665)" class="st11 st4">Clock</text>
	</g>
	<g id="REM">
		<rect x="429.1" y="170" class="st12" width="90" height="38.8"/>
		<rect x="429.1" y="170" class="st12" width="45" height="19.4"/>
		<rect x="474.1" y="170" class="st12" width="45" height="19.4"/>
		<text transform="matrix(0.9777 0 0 1 434.7085 184.5398)" class="st2 st13">REM</text>
		<text transform="matrix(0.9777 0 0 1 487.1528 184.5408)" class="st2 st13">000</text>
		<text transform="matrix(0.9777 0 0 1 444.6899 205.3035)" class="st2 st13">00000000</text>
	</g>
	<g id="RDM">
		<rect x="423.1" y="34.1" class="st12" width="90" height="38.8"/>
		<rect x="423.1" y="34.1" class="st12" width="45" height="19.4"/>
		<rect x="468.1" y="34.1" class="st12" width="45" height="19.4"/>
		<text transform="matrix(0.9769 0 0 1 428.7307 48.6016)" class="st2 st14">RDM</text>
		<text transform="matrix(0.9769 0 0 1 481.1751 48.6016)" class="st2 st14">000</text>
		<text transform="matrix(0.9769 0 0 1 438.7122 69.3828)" class="st2 st14">00000000</text>
	</g>
	<g id="RI_1_">
		<rect x="220.1" y="33" class="st12" width="90" height="38.8"/>
		<rect x="220.1" y="33" class="st12" width="45" height="19.4"/>
		<rect x="265.1" y="33" class="st12" width="45" height="19.4"/>
		<text transform="matrix(0.9769 0 0 1 225.6457 47.4731)" class="st2 st15">    RI</text>
		<text transform="matrix(0.9769 0 0 1 278.0891 47.4731)" class="st2 st15">000</text>
		<text transform="matrix(0.9769 0 0 1 235.6267 68.2539)" class="st2 st15">00000000</text>
	</g>
	<g id="PC_2_">
		<rect x="224.1" y="170" class="st16" width="90" height="38.8"/>
		<rect x="224.1" y="170" class="st12" width="45" height="19.4"/>
		<rect x="269.1" y="170" class="st16" width="45" height="19.4"/>
		<text transform="matrix(0.9777 0 0 1 229.6217 184.5398)" class="st2 st13">    PC</text>
		<text transform="matrix(0.9777 0 0 1 282.0651 184.5408)" class="st2 st13">000</text>
		<text transform="matrix(0.9777 0 0 1 239.6027 205.3035)" class="st2 st13">00000000</text>
	</g>
	<g id="AC_1_">
		<rect x="256.6" y="254.3" class="st12" width="90" height="38.8"/>
		<rect x="256.6" y="254.3" class="st12" width="45" height="19.4"/>
		<rect x="301.6" y="254.3" class="st12" width="45" height="19.4"/>
		<text transform="matrix(0.9773 0 0 1 262.1154 268.7897)" class="st2 st17">    AC</text>
		<text transform="matrix(0.9773 0 0 1 314.5588 268.7897)" class="st2 st17">000</text>
		<text transform="matrix(0.9773 0 0 1 272.0964 289.5631)" class="st2 st17">00000000</text>
	</g>
	<g id="DECODIFICADOR">
		<rect x="46.3" y="14" class="st10" width="120.7" height="54.9"/>
		<text transform="matrix(0.8024 0 0 1 52.6978 52.2822)" class="st2 st18">DECODIFICADOR</text>
	</g>
	<g id="UC">
		<rect x="21.4" y="132" class="st10" width="163.1" height="58.1"/>
		<text transform="matrix(1.0239 0 0 1 94.7441 166.2324)" class="st2 st19">UC</text>
	</g>
	<g id="ULA">
		<polygon class="st20" points="508.5,373.9 437.6,375 401.5,314.4 450,313.4 472.4,332.6 493.5,313.2 543.3,312.2 		"/>
		<text transform="matrix(1 0 0 1 464.3619 353.2169)" class="st2 st4">ULA</text>
	</g>
</g>
<g id="LD">
	<line class="st1" x1="167.8" y1="42.7" x2="220.1" y2="42.7"/>
	<line class="st1" x1="310.1" y1="41.5" x2="423.1" y2="41.5"/>
	<line class="st1" x1="426.3" y1="313.9" x2="426.3" y2="273.7"/>
	<line class="st1" x1="346.7" y1="273.7" x2="426.3" y2="273.7"/>
	<line class="st1" x1="357.8" y1="41.5" x2="357.8" y2="260.8"/>
	<line class="st1" x1="346.7" y1="260.8" x2="357.8" y2="260.8"/>
	<line class="st1" x1="471.9" y1="375" x2="471.9" y2="385.8"/>
	<line class="st1" x1="302.6" y1="293.1" x2="302.5" y2="385.8"/>
	<line class="st1" x1="471.9" y1="385.8" x2="302.5" y2="385.8"/>
	<line class="st1" x1="184.4" y1="161" x2="193.9" y2="161"/>
	<line class="st1" x1="426.3" y1="302.6" x2="193.9" y2="302.6"/>
	<line class="st1" x1="193.9" y1="161" x2="193.9" y2="302.6"/>
	<line class="st1" x1="508.9" y1="312.2" x2="508.9" y2="253"/>
	<line class="st1" x1="357.8" y1="247.8" x2="509.1" y2="247.8"/>
	<line class="st1" x1="509.1" y1="247.8" x2="508.9" y2="264"/>
	<line class="st1" x1="314.1" y1="189.4" x2="357.8" y2="189.4"/>
	<line class="st1" x1="429.1" y1="189.4" x2="357.8" y2="189.4"/>
	<line class="st1" x1="224.1" y1="189.4" x2="207.8" y2="189.4"/>
	<line class="st21" x1="224.1" y1="205.3" x2="207.8" y2="205.3"/>
	<line class="st1" x1="207.8" y1="189.4" x2="207.8" y2="205.3"/>
	<line class="st21" x1="513.1" y1="53.5" x2="568.7" y2="53.5"/>
	<line class="st21" x1="519.1" y1="189.4" x2="568.7" y2="189.4"/>
	<line class="st21" x1="237.9" y1="170" x2="237.9" y2="163.9"/>
	<line class="st21" x1="266" y1="170" x2="266" y2="162"/>
	<line class="st21" x1="291.6" y1="170" x2="291.6" y2="162"/>
</g>
</svg>
