<?xml version="1.0" encoding="UTF-8"?>
<!DOCTYPE svg PUBLIC "-//W3C//DTD SVG 1.1//EN" "http://www.w3.org/Graphics/SVG/1.1/DTD/svg11.dtd">
<!-- Creator: CorelDRAW X8 -->
<svg xmlns="http://www.w3.org/2000/svg" xml:space="preserve" width="650px" height="400px" version="1.1" style="shape-rendering:geometricPrecision; text-rendering:geometricPrecision; image-rendering:optimizeQuality; fill-rule:evenodd; clip-rule:evenodd"
viewBox="0 0 650 400"
 xmlns:xlink="http://www.w3.org/1999/xlink">
 <defs>
  <style type="text/css">
   <![CDATA[
    .str0 {stroke:#373435;stroke-width:2.36221}
    .str2 {stroke:#E73338;stroke-width:2.36221}
    .str4 {stroke:#373435;stroke-width:1.18111}
    .str1 {stroke:#373435;stroke-width:0.900002}
    .str3 {stroke:#373435;stroke-width:2.36221}
    .fil0 {fill:none}
    .fil1 {fill:#373435}
    .fnt1 {font-weight:normal;font-size:12px;font-family:'Arial'}
    .fnt0 {font-weight:normal;font-size:16.6666px;font-family:'Arial'}
   ]]>
  </style>
   <clipPath id="id0">
    <rect x="2" y="-1" width="649" height="402"/>
   </clipPath>
 </defs>
 <g id="Camada_x0020_1">
  <metadata id="CorelCorpID_0Corel-Layer"/>
  <rect class="fil0 str0" x="79" y="113" width="104.152" height="51.1123"/>
  <line class="fil0 str1" x1="80" y1="140" x2="184" y2= "140" />
  <line class="fil0 str1" x1="131" y1="113" x2="131" y2= "140" />
  <text x="89" y="134"  class="fil1 fnt0">RDM</text>
  <text x="143" y="134"  class="fil1 fnt0">000</text>
  <text x="94" y="157"  class="fil1 fnt0">00000000</text>
  <g style="clip-path:url(#id0)">
   <image id="PHSIM.png" x="2" y="-1" width="649" height="402" xlink:href="SVG_protTeste3_Images\SVG_protTeste3_ImgID1.png"/>
  </g>
  <line class="fil0 str0" x1="73" y1="84" x2="74" y2= "108" />
  <line class="fil0 str2" x1="89" y1="84" x2="90" y2= "107" />
  <line class="fil0 str0" x1="112" y1="83" x2="113" y2= "107" />
  <line class="fil0 str0" x1="129" y1="84" x2="130" y2= "108" />
  <g id="_2596325426576">
   <line class="fil0 str3" x1="326" y1="-1" x2="326" y2= "-1" />
  </g>
  <g id="_2596325426736">
   <line class="fil0 str3" x1="326" y1="-1" x2="326" y2= "-1" />
  </g>
  <path class="fil0 str4" d="M74 24l104 0 0 51 -104 0 0 -51zm-2 26l104 0m-53 -27l0 27"/>
  <text x="80" y="42"  class="fil1 fnt0">REM</text>
  <text x="138" y="42"  class="fil1 fnt0">000</text>
  <text x="92" y="70"  class="fil1 fnt0">00000000</text>
  <text x="12" y="247"  class="fil1 fnt1">00000000</text>
 </g>
</svg>
