<?xml version="1.0" encoding="UTF-8"?>
<!DOCTYPE svg PUBLIC "-//W3C//DTD SVG 1.1//EN" "http://www.w3.org/Graphics/SVG/1.1/DTD/svg11.dtd">
<!-- Creator: CorelDRAW X8 -->
<svg xmlns="http://www.w3.org/2000/svg" xml:space="preserve" width="650px" height="400px" version="1.1" style="shape-rendering:geometricPrecision; text-rendering:geometricPrecision; image-rendering:optimizeQuality; fill-rule:evenodd; clip-rule:evenodd"
viewBox="0 0 650 400"
 xmlns:xlink="http://www.w3.org/1999/xlink">
 <defs>
  <style type="text/css">
   <![CDATA[
    .str0 {stroke:#373435;stroke-width:0.631891}
    .str1 {stroke:#373435;stroke-width:2.36221}
    .str2 {stroke:#373435;stroke-width:1.18111}
    .str3 {stroke:#373435;stroke-width:0.900002}
    .fil0 {fill:none}
    .fil1 {fill:#373435}
    .fnt0 {font-weight:normal;font-size:12px;font-family:'Arial'}
    .fnt2 {font-weight:normal;font-size:16.6666px;font-family:'Arial'}
    .fnt1 {font-weight:normal;font-size:24.9993px;font-family:'Arial'}
   ]]>
  </style>
 </defs>
 <g id="Camada_x0020_1">
  <metadata id="CorelCorpID_0Corel-Layer"/>
  <polygon class="fil0 str0" points="20,16 106,16 106,42 20,42 "/>
  <path class="fil0 str0" d="M285 110l2 0c0,0 -2,2 -2,2 0,0 -2,2 -2,2 -2,0 -2,-2 -2,-2 -2,0 -2,0 -2,-2 0,0 0,0 0,-2 0,0 0,-3 0,-3 0,-2 0,-2 2,-2 0,0 0,0 2,0 0,0 2,0 2,0 0,0 2,2 2,2l-2 0c0,0 0,0 0,-2 -2,0 -2,0 -2,0 -2,0 -2,0 -2,0 0,2 -2,2 -2,2 0,0 0,3 0,3 0,0 0,2 0,2 2,0 2,2 2,2 0,0 2,0 2,0 0,0 0,0 2,0 0,0 0,-2 0,-2z"/>
  <path class="fil0 str0" d="M271 108l2 0c2,0 2,0 2,0 0,0 0,-3 0,-3 0,0 0,0 0,0 0,-2 0,-2 0,-2 0,0 -2,0 -2,0l-2 0 0 5z"/>
  <path class="fil0 str0" d="M268 112l0 -9 5 0c0,0 2,0 2,0 0,0 0,0 0,0 2,0 2,0 2,0 0,2 0,2 0,2 0,0 0,3 0,3 -2,0 -2,2 -4,2l-2 0 0 2 -3 0 0 0z"/>
  <polygon class="fil0 str0" points="254,97 302,97 302,120 254,120 "/>
  <polygon class="fil0 str0" points="76,166 185,166 185,206 76,206 "/>
  <path class="fil0 str0" d="M503 39l0 -15 4 0 2 11c2,0 2,0 2,2 0,-2 0,-2 0,-2l4 -11 2 0 0 15 -2 0 0 -13 -4 13 -2 0 -4 -13 0 13 -2 0z"/>
  <path class="fil0 str0" d="M492 37l2 0c2,0 2,0 2,0 0,0 2,0 2,-2 0,0 0,0 0,0 0,-3 0,-3 0,-5 0,0 0,-2 0,-2 0,0 0,-2 -2,-2 0,0 0,0 -2,0l-2 0 0 11 0 0z"/>
  <path class="fil0 str0" d="M490 39l0 -15 4 0c2,0 2,0 2,2 2,0 2,0 2,0 3,0 3,2 3,2 0,0 0,2 0,2 0,2 0,2 0,5 0,0 0,0 0,2 -3,0 -3,0 -3,0 0,0 0,0 -2,0 0,2 0,2 -2,2l-4 0 0 0z"/>
  <path class="fil0 str0" d="M477 30l5 0c0,0 2,0 2,0 0,0 0,0 0,0 0,-2 0,-2 0,-2 0,0 0,0 0,-2 0,0 0,0 -2,0l-5 0 0 4z"/>
  <path class="fil0 str0" d="M475 39l0 -15 7 0c2,0 2,0 2,2 2,0 2,0 2,0 0,0 0,2 0,2 0,2 0,2 0,2 0,2 -2,2 -2,2 0,0 0,0 0,0 0,0 2,3 2,3l2 4 -2 0 -2 -4c0,0 -2,0 -2,-3 0,0 0,0 0,0 0,0 0,0 -3,0 0,0 0,0 0,0l-2 0 0 7 -2 0 0 0z"/>
  <polygon class="fil0 str0" points="465,18 528,18 528,45 465,45 "/>
  <polygon class="fil0 str0" points="469,89 528,89 528,121 469,121 "/>
  <path class="fil0 str0" d="M479 113l0 -15 7 0c0,0 2,0 2,0 0,2 2,2 2,2 0,0 0,2 0,2 0,0 0,2 0,2 -2,0 -2,2 -4,2 0,0 2,0 2,0 0,0 0,2 0,2l4 5 -4 0 0 -5c-2,0 -2,0 -2,-2 0,0 0,0 0,0 -2,0 -2,0 -2,0 0,0 0,0 0,0l-2 0 0 7 -3 0 0 0z"/>
  <path class="fil0 str0" d="M482 104l4 0c0,0 0,0 0,0 2,0 2,0 2,0 0,-2 0,-2 0,-2 0,0 0,-2 0,-2 0,0 -2,0 -2,0l-4 0 0 4z"/>
  <polygon class="fil0 str0" points="492,113 492,98 503,98 503,100 494,100 494,104 503,104 503,106 494,106 494,110 503,110 503,113 492,113 "/>
  <path class="fil0 str0" d="M505 113l0 -15 4 0 2 10c0,0 0,2 0,2 2,-2 2,-2 2,-2l2 -10 2 0 0 15 0 0 0 -13 -4 13 -2 0 -4 -13 0 13 -2 0z"/>
  <polygon class="fil0 str0" points="243,16 313,16 313,59 243,59 "/>
  <polygon class="fil0 str0" points="20,81 139,81 139,132 20,132 "/>
  <path class="fil0 str0" d="M401 338l2 0 0 -2c0,0 -2,-2 -2,-2 0,0 0,2 0,2l0 2z"/>
  <polygon class="fil0 str0" points="397,343 401,332 403,332 408,343 406,343 403,341 399,341 399,343 "/>
  <polygon class="fil0 str0" points="391,343 391,332 391,332 391,343 397,343 397,343 "/>
  <path class="fil0 str0" d="M387 332l2 0 0 6c0,3 0,3 0,5 -2,0 -2,0 -2,0 0,0 -3,2 -3,2 -2,0 -2,-2 -2,-2 -2,0 -2,0 -2,0 0,-2 0,-2 0,-5l0 -6 0 0 0 6c0,3 0,3 2,3 0,2 0,2 0,2 0,0 0,0 2,0 0,0 0,0 3,0 0,-2 0,-2 0,-5l0 -6z"/>
  <polygon class="fil0 str0" points="418,366 355,366 298,286 365,286 391,317 416,286 486,286 "/>
  <g id="_2525720241792">
   <line class="fil0 str0" x1="102" y1="32" x2="243" y2= "32" />
  </g>
  <g id="_2525720220032">
   <line class="fil0 str0" x1="313" y1="32" x2="465" y2= "30" />
  </g>
  <g id="_2525509346352">
   <line class="fil0 str0" x1="302" y1="104" x2="469" y2= "104" />
  </g>
  <g id="_2527079252640">
   <polyline class="fil0 str0" points="393,366 393,383 203,383 203,222 "/>
  </g>
  <g id="_2527079252928">
   <polyline class="fil0 str0" points="243,203 332,203 332,286 "/>
  </g>
  <g id="_2525509959152">
   <polyline class="fil0 str0" points="254,104 237,104 237,77 279,77 279,94 "/>
  </g>
  <g id="_2525810604560">
   <polyline class="fil0 str0" points="389,32 389,134 313,134 313,243 "/>
  </g>
  <g id="_2525810613264">
   <polyline class="fil0 str0" points="450,286 450,172 313,172 "/>
  </g>
  <text x="26" y="33"  class="fil1 fnt0">Decodificador</text>
  <text x="572" y="29"  class="fil1 fnt0">00000000</text>
  <text x="38" y="332"  class="fil1 fnt0">00000000</text>
  <text x="473" y="58"  class="fil1 fnt0">00000000</text>
  <text x="475" y="135"  class="fil1 fnt0">00000000</text>
  <text x="176" y="235"  class="fil1 fnt0">00000000</text>
  <text x="254" y="132"  class="fil1 fnt0">00000000</text>
  <text x="367" y="281"  class="fil1 fnt0">00000000</text>
  <text x="266" y="71"  class="fil1 fnt0">0000</text>
  <text x="52" y="120"  class="fil1 fnt1">UC</text>
  <rect class="fil0 str1" x="-268" y="18" width="104.152" height="51.1123"/>
  <path class="fil0 str2" d="M-140 18l105 0 0 51 -105 0 0 -51zm-1 26l104 0m-53 -27l0 27"/>
  <line class="fil0 str3" x1="-267" y1="44" x2="-163" y2= "44" />
  <line class="fil0 str3" x1="-216" y1="17" x2="-216" y2= "44" />
  <text x="-257" y="38"  class="fil1 fnt2">RDM</text>
  <text x="-133" y="36"  class="fil1 fnt2">REM</text>
  <text x="-204" y="38"  class="fil1 fnt2">000</text>
  <text x="-75" y="36"  class="fil1 fnt2">000</text>
  <text x="-253" y="62"  class="fil1 fnt2">00000000</text>
  <text x="-121" y="64"  class="fil1 fnt2">00000000</text>
 </g>
</svg>
