<svg id="tags" xmlns="http://www.w3.org/2000/svg" viewBox="0 0 564.04 390.69">
  <title>SVG_prot</title>
  <g id="Camada_12" data-name="Camada 12">
    <path d="M231.54,143.89h-1l0-23.71,14.91,0,0,23.71h-1c1.19,0,1.94,1.81,1.34,3.25l-6.44,15.58a1.48,1.48,0,0,1-2.68,0l-6.39-15.6C229.6,145.69,230.35,143.88,231.54,143.89Z" transform="translate(-5.13 4.43)" style="fill: #ededed;stroke: #1d1d1b;stroke-linecap: round;stroke-miterlimit: 10"/>
    <path d="M243.07,208.78" transform="translate(-5.13 4.43)" style="fill: none;stroke: #1d1d1b;stroke-linecap: round;stroke-miterlimit: 10"/>
    <text transform="translate(233.19 127.15)" style="writing-mode: tb;text-orientation: upright;glyph-orientation-vertical: 0deg;font-size: 9px;font-family: Arial">PCr</text>
  </g>
  <g id="Camada_11" data-name="Camada 11">
    <path d="M420.07,163.26v1L394.19,164l0.19-14.9,25.87,0.33v1c0-1.19,2-1.91,3.57-1.3l16.92,6.63c1.57,0.62,1.55,2.1,0,2.68l-17.09,6.19C422,165.22,420.05,164.45,420.07,163.26Z" transform="translate(-5.13 4.43)" style="fill: #ededed;stroke: #1d1d1b;stroke-linecap: round;stroke-miterlimit: 10"/>
    <line x1="436.56" y1="161.88" x2="449.39" y2="161.88" style="fill: none;stroke: #1d1d1b;stroke-linecap: round;stroke-miterlimit: 10"/>
    <line x1="449.39" y1="174.77" x2="449.39" y2="161.88" style="fill: none;stroke: #1d1d1b;stroke-linecap: round;stroke-miterlimit: 10"/>
    <text transform="translate(391.26 166.39)" style="font-size: 12px;font-family: Arial">REMr</text>
  </g>
  <g id="Camada_10" data-name="Camada 10">
    <path d="M477.09,152.05v1l-25.87-.33,0.19-14.9,25.87,0.33v1c0-1.19,2-1.91,3.57-1.3l16.92,6.63c1.57,0.62,1.55,2.1,0,2.68l-17.09,6.19C479,154,477.07,153.24,477.09,152.05Z" transform="translate(-5.13 4.43)" style="fill: #ededed;stroke: #1d1d1b;stroke-linecap: round;stroke-miterlimit: 10"/>
    <line x1="493.58" y1="150.67" x2="506.4" y2="150.67" style="fill: none;stroke: #1d1d1b;stroke-linecap: round;stroke-miterlimit: 10"/>
    <line x1="506.4" y1="174.45" x2="506.4" y2="150.67" style="fill: none;stroke: #1d1d1b;stroke-linecap: round;stroke-miterlimit: 10"/>
    <text transform="translate(448.87 154.41)" style="font-size: 12px;font-family: Arial">REMw</text>
  </g>
  <g id="Camada_9" data-name="Camada 9">
    <path d="M310.27,247.21v1l-25.87-.33,0.19-14.9,25.87,0.33v1c0-1.19,2-1.91,3.57-1.3l16.92,6.63c1.57,0.62,1.55,2.1,0,2.68l-17.09,6.19C312.22,249.17,310.26,248.4,310.27,247.21Z" transform="translate(-5.13 4.43)" style="fill: #ededed;stroke: #1d1d1b;stroke-linecap: round;stroke-miterlimit: 10"/>
    <line x1="326.76" y1="245.83" x2="339.59" y2="245.83" style="fill: none;stroke: #1d1d1b;stroke-linecap: round;stroke-miterlimit: 10"/>
    <line x1="339.59" y1="258.71" x2="339.59" y2="245.83" style="fill: none;stroke: #1d1d1b;stroke-linecap: round;stroke-miterlimit: 10"/>
    <text transform="translate(282.48 248.83)" style="font-size: 12px;font-family: Arial">ACc</text>
  </g>
  <g id="Camada_17" data-name="Camada 17">
    <path d="M234.22,247.21v1l-25.87-.33,0.19-14.9,25.87,0.33v1c0-1.19,2-1.91,3.57-1.3l16.92,6.63c1.57,0.62,1.55,2.1,0,2.68l-17.09,6.19C236.17,249.17,234.21,248.4,234.22,247.21Z" transform="translate(-5.13 4.43)" style="fill: #ededed;stroke: #1d1d1b;stroke-linecap: round;stroke-miterlimit: 10"/>
    <line x1="250.71" y1="245.83" x2="263.54" y2="245.83" style="fill: none;stroke: #1d1d1b;stroke-linecap: round;stroke-miterlimit: 10"/>
    <line x1="263.54" y1="258.71" x2="263.54" y2="245.83" style="fill: none;stroke: #1d1d1b;stroke-linecap: round;stroke-miterlimit: 10"/>
    <text transform="translate(206.48 248.83)" style="font-size: 12px;font-family: Arial">ACw</text>
  </g>
  <g id="Camada_8" data-name="Camada 8">
    <path d="M229.2,279v1l-25.87-.33,0.19-14.9,25.87,0.33v1c0-1.19,2-1.91,3.57-1.3l16.92,6.63c1.57,0.62,1.55,2.1,0,2.68l-17.09,6.19C231.14,281,229.18,280.24,229.2,279Z" transform="translate(-5.13 4.43)" style="fill: #ededed;stroke: #1d1d1b;stroke-linecap: round;stroke-miterlimit: 10"/>
    <line x1="245.68" y1="277.67" x2="258.51" y2="277.67" style="fill: none;stroke: #1d1d1b;stroke-linecap: round;stroke-miterlimit: 10"/>
    <line x1="251.45" y1="278.1" x2="258.51" y2="277.67" style="fill: none;stroke: #1d1d1b;stroke-linecap: round;stroke-miterlimit: 10"/>
    <text transform="translate(202.71 281.1)" style="font-size: 12px;font-family: Arial">ACr</text>
  </g>
  <g id="Camada_21" data-name="Camada 21">
    <path d="M365.81,361.81v1l-25.86-.33,0.19-14.9L366,347.95v1c0-1.19,2-1.91,3.57-1.3l16.92,6.63c1.57,0.62,1.55,2.1,0,2.68l-17.09,6.19C367.76,363.77,365.79,363,365.81,361.81Z" transform="translate(-5.13 4.43)" style="fill: #ededed;stroke: #1d1d1b;stroke-linecap: round;stroke-miterlimit: 10"/>
    <line x1="321.95" y1="358.65" x2="334.78" y2="358.65" style="fill: none;stroke: #1d1d1b;stroke-linecap: round;stroke-miterlimit: 10"/>
    <text transform="translate(335.78 362.91)" style="font-size: 12px;font-family: Arial">Ula op</text>
  </g>
  <g id="Camada_7" data-name="Camada 7">
    <path d="M243.64,25.51c0,1.19,2,2,3.54,1.39l17.08-6.2c1.59-.58,1.61-2.06,0-2.68l-16.92-6.63c-1.55-.61-3.52.09-3.57,1.26v-1L218,11.32l-0.19,14.9,25.86,0.33v-1Z" transform="translate(-5.13 4.43)" style="fill: #ededed;stroke: #1d1d1b;stroke-linecap: round;stroke-miterlimit: 10"/>
    <line x1="260.13" y1="24.13" x2="272.96" y2="24.13" style="fill: none;stroke: #1d1d1b;stroke-linecap: round;stroke-miterlimit: 10"/>
    <line x1="272.96" y1="37.02" x2="272.96" y2="24.13" style="fill: none;stroke: #1d1d1b;stroke-linecap: round;stroke-miterlimit: 10"/>
  </g>
  <g id="Camada_6" data-name="Camada 6">
    <path d="M411,27.14v1l-25.87-.33,0.19-14.9,25.87,0.33v1c0-1.19,2-1.91,3.57-1.29l16.92,6.63c1.57,0.62,1.55,2.1,0,2.68l-17.09,6.19C413,29.1,411,28.33,411,27.14Z" transform="translate(-5.13 4.43)" style="fill: #ededed;stroke: #1d1d1b;stroke-linecap: round;stroke-miterlimit: 10"/>
    <line x1="427.5" y1="25.76" x2="440.33" y2="25.76" style="fill: none;stroke: #1d1d1b;stroke-linecap: round;stroke-miterlimit: 10"/>
    <line x1="440.33" y1="38.67" x2="440.33" y2="25.76" style="fill: none;stroke: #1d1d1b;stroke-linecap: round;stroke-miterlimit: 10"/>
    <text transform="translate(382.2 29.33)" style="font-size: 12px;font-family: Arial">RDMr</text>
    <text x="-5.13" y="4.43"/>  </g>
  <g id="Camada_15" data-name="Camada 15">
    <path d="M410.5,95.66v1l-25.87-.33,0.19-14.9,25.87,0.33v1c0-1.19,2-1.91,3.57-1.3l16.92,6.63c1.57,0.62,1.55,2.1,0,2.68L414,97C412.45,97.62,410.49,96.85,410.5,95.66Z" transform="translate(-5.13 4.43)" style="fill: #ededed;stroke: #1d1d1b;stroke-linecap: round;stroke-miterlimit: 10"/>
    <line x1="426.99" y1="94.28" x2="439.82" y2="94.28" style="fill: none;stroke: #1d1d1b;stroke-linecap: round;stroke-miterlimit: 10"/>
    <line x1="439.82" y1="77.33" x2="439.82" y2="94.28" style="fill: none;stroke: #1d1d1b;stroke-linecap: round;stroke-miterlimit: 10"/>
    <text transform="translate(382.2 98.42)" style="font-size: 12px;font-family: Arial">MEMr</text>
  </g>
  <g id="Camada_14" data-name="Camada 14">
    <path d="M474,101.38v1l-25.87-.33,0.19-14.9,25.87,0.33v1c0-1.19,2-1.91,3.57-1.3l16.92,6.63c1.57,0.62,1.55,2.1,0,2.68l-17.09,6.19C475.93,103.33,474,102.57,474,101.38Z" transform="translate(-5.13 4.43)" style="fill: #ededed;stroke: #1d1d1b;stroke-linecap: round;stroke-miterlimit: 10"/>
    <line x1="490.47" y1="100" x2="503.3" y2="100" style="fill: none;stroke: #1d1d1b;stroke-linecap: round;stroke-miterlimit: 10"/>
    <line x1="503.3" y1="77.33" x2="503.3" y2="100" style="fill: none;stroke: #1d1d1b;stroke-linecap: round;stroke-miterlimit: 10"/>
    <text transform="translate(444.57 102.87)" style="font-size: 12px;font-family: Arial">MEMw</text>
  </g>
  <g id="Camada_16" data-name="Camada 16">
    <path d="M481,242.32v1L455.14,243l0.19-14.9,25.87,0.33v1c0-1.19,2-1.91,3.57-1.3l16.92,6.63c1.57,0.62,1.55,2.1,0,2.68l-17.09,6.19C483,244.28,481,243.51,481,242.32Z" transform="translate(-5.13 4.43)" style="fill: #ededed;stroke: #1d1d1b;stroke-linecap: round;stroke-miterlimit: 10"/>
    <line x1="497.51" y1="240.94" x2="510.34" y2="240.94" style="fill: none;stroke: #1d1d1b;stroke-linecap: round;stroke-miterlimit: 10"/>
    <line x1="510.34" y1="213.21" x2="510.34" y2="240.94" style="fill: none;stroke: #1d1d1b;stroke-linecap: round;stroke-miterlimit: 10"/>
    <text transform="translate(451.13 244.25)" style="font-size: 12px;font-family: Arial">MEMw</text>
  </g>
  <g id="Camada_13" data-name="Camada 13">
    <path d="M418.85,230.78v1L393,231.49l0.19-14.9L419,216.91v1c0-1.19,2-1.91,3.57-1.3l16.92,6.63c1.57,0.62,1.55,2.1,0,2.68l-17.09,6.19C420.79,232.74,418.83,232,418.85,230.78Z" transform="translate(-5.13 4.43)" style="fill: #ededed;stroke: #1d1d1b;stroke-linecap: round;stroke-miterlimit: 10"/>
    <line x1="435.34" y1="229.4" x2="448.16" y2="229.4" style="fill: none;stroke: #1d1d1b;stroke-linecap: round;stroke-miterlimit: 10"/>
    <line x1="448.16" y1="213.21" x2="448.16" y2="229.4" style="fill: none;stroke: #1d1d1b;stroke-linecap: round;stroke-miterlimit: 10"/>
    <text transform="translate(391.26 233.25)" style="font-size: 12px;font-family: Arial">MEMr</text>
  </g>
  <g id="Camada_5" data-name="Camada 5">
    <path d="M474.44,17.38v1l-25.86-.33,0.19-14.9,25.86,0.33v1c0-1.19,2-1.91,3.57-1.29l16.92,6.63c1.57,0.61,1.55,2.1,0,2.68L478,18.76C476.39,19.34,474.42,18.57,474.44,17.38Z" transform="translate(-5.13 4.43)" style="fill: #ededed;stroke: #1d1d1b;stroke-linecap: round;stroke-miterlimit: 10"/>
    <line x1="503.76" y1="38.67" x2="503.76" y2="16" style="fill: none;stroke: #1d1d1b;stroke-linecap: round;stroke-miterlimit: 10"/>
    <line x1="490.93" y1="16" x2="503.76" y2="16" style="fill: none;stroke: #1d1d1b;stroke-linecap: round;stroke-miterlimit: 10"/>
    <text transform="translate(445.57 19.82)" style="font-size: 12px;font-family: Arial">RDMw</text>
  </g>
  <g id="Camada_18" data-name="Camada 18">
    <path d="M298,143.11h1l0-23.71-14.91,0,0,23.71h1c-1.19,0-1.93,1.81-1.33,3.25L290.27,162a1.48,1.48,0,0,0,2.68,0l6.39-15.6C299.94,144.91,299.19,143.11,298,143.11Z" transform="translate(-5.13 4.43)" style="fill: #ededed;stroke: #1d1d1b;stroke-linecap: round;stroke-miterlimit: 10"/>
    <path d="M294.93,208.78" transform="translate(-5.13 4.43)" style="fill: none;stroke: #1d1d1b;stroke-linecap: round;stroke-miterlimit: 10"/>
    <path d="M290.27,162" transform="translate(-5.13 4.43)" style="fill: none;stroke: #1d1d1b;stroke-linecap: round;stroke-miterlimit: 10"/>
    <text transform="translate(286.46 127.15)" style="writing-mode: tb;text-orientation: upright;glyph-orientation-vertical: 0deg;font-size: 9px;font-family: Arial">PC+</text>
  </g>
  <g id="Camada_19" data-name="Camada 19">
    <path d="M271.66,143.11h1l0-23.71-14.91,0,0,23.71h1c-1.19,0-1.93,1.81-1.33,3.25L263.93,162a1.48,1.48,0,0,0,2.68,0l6.39-15.6C273.6,144.91,272.85,143.11,271.66,143.11Z" transform="translate(-5.13 4.43)" style="fill: #ededed;stroke: #1d1d1b;stroke-linecap: round;stroke-miterlimit: 10"/>
    <path d="M270.45,208.78" transform="translate(-5.13 4.43)" style="fill: none;stroke: #1d1d1b;stroke-linecap: round;stroke-miterlimit: 10"/>
    <path d="M266.61,162" transform="translate(-5.13 4.43)" style="fill: none;stroke: #1d1d1b;stroke-linecap: round;stroke-miterlimit: 10"/>
    <text x="-5.13" y="4.43"/>    <text transform="translate(218.96 27.33)" style="font-size: 12px;font-family: Arial">RIw</text>
    <text transform="translate(260.13 127.15)" style="writing-mode: tb;text-orientation: upright;glyph-orientation-vertical: 0deg;font-size: 9px;font-family: Arial">PCw</text>
  </g>
  <g id="LC">
    <line x1="21.7" y1="56.51" x2="21.7" y2="136.41" style="fill: none;stroke: red;stroke-miterlimit: 10;stroke-dasharray: 3,3"/>
    <line x1="41.19" y1="73.34" x2="41.19" y2="136.41" style="fill: none;stroke: red;stroke-miterlimit: 10;stroke-dasharray: 3,3"/>
    <line x1="47.57" y1="73.34" x2="47.57" y2="136.41" style="fill: none;stroke: red;stroke-miterlimit: 10;stroke-dasharray: 3,3"/>
    <line x1="55.93" y1="73.34" x2="55.93" y2="136.41" style="fill: none;stroke: red;stroke-miterlimit: 10;stroke-dasharray: 3,3"/>
    <line x1="65.17" y1="73.34" x2="65.17" y2="136.41" style="fill: none;stroke: red;stroke-miterlimit: 10;stroke-dasharray: 3,3"/>
    <line x1="72.78" y1="73.34" x2="72.78" y2="136.41" style="fill: none;stroke: red;stroke-miterlimit: 10;stroke-dasharray: 3,3"/>
    <line x1="80.32" y1="73.34" x2="80.32" y2="136.41" style="fill: none;stroke: red;stroke-miterlimit: 10;stroke-dasharray: 3,3"/>
    <line x1="87.45" y1="73.34" x2="87.45" y2="136.41" style="fill: none;stroke: red;stroke-miterlimit: 10;stroke-dasharray: 3,3"/>
    <line x1="97.24" y1="73.34" x2="97.24" y2="136.41" style="fill: none;stroke: red;stroke-miterlimit: 10;stroke-dasharray: 3,3"/>
    <line x1="107.57" y1="73.34" x2="107.57" y2="136.41" style="fill: none;stroke: red;stroke-miterlimit: 10;stroke-dasharray: 3,3"/>
    <line x1="116.8" y1="73.34" x2="116.8" y2="136.41" style="fill: none;stroke: red;stroke-miterlimit: 10;stroke-dasharray: 3,3"/>
    <line x1="127.67" y1="73.34" x2="127.67" y2="136.41" style="fill: none;stroke: red;stroke-miterlimit: 10;stroke-dasharray: 3,3"/>
    <line x1="135.28" y1="73.34" x2="135.28" y2="136.41" style="fill: none;stroke: red;stroke-miterlimit: 10;stroke-dasharray: 3,3"/>
    <line x1="143.43" y1="73.34" x2="143.43" y2="136.41" style="fill: none;stroke: red;stroke-miterlimit: 10;stroke-dasharray: 3,3"/>
    <line x1="150.5" y1="73.34" x2="150.5" y2="136.41" style="fill: none;stroke: red;stroke-miterlimit: 10;stroke-dasharray: 3,3"/>
    <line x1="158.65" y1="73.34" x2="158.65" y2="136.41" style="fill: none;stroke: red;stroke-miterlimit: 10;stroke-dasharray: 3,3"/>
    <line x1="17.7" y1="194.69" x2="17.7" y2="257.76" style="fill: none;stroke: red;stroke-miterlimit: 10;stroke-dasharray: 3,3"/>
    <line x1="29.02" y1="195.06" x2="29.02" y2="258.13" style="fill: none;stroke: red;stroke-miterlimit: 10;stroke-dasharray: 3,3"/>
    <line x1="40.39" y1="195.06" x2="40.39" y2="258.13" style="fill: none;stroke: red;stroke-miterlimit: 10;stroke-dasharray: 3,3"/>
    <line x1="51.63" y1="195.06" x2="51.63" y2="258.13" style="fill: none;stroke: red;stroke-miterlimit: 10;stroke-dasharray: 3,3"/>
    <line x1="150.5" y1="195.06" x2="150.5" y2="258.13" style="fill: none;stroke: red;stroke-miterlimit: 10;stroke-dasharray: 3,3"/>
    <line x1="63.17" y1="194.39" x2="63.17" y2="257.45" style="fill: none;stroke: red;stroke-miterlimit: 10;stroke-dasharray: 3,3"/>
    <line x1="73.78" y1="194.39" x2="73.78" y2="257.45" style="fill: none;stroke: red;stroke-miterlimit: 10;stroke-dasharray: 3,3"/>
    <line x1="84.11" y1="194.39" x2="84.11" y2="257.45" style="fill: none;stroke: red;stroke-miterlimit: 10;stroke-dasharray: 3,3"/>
    <line x1="94.52" y1="194.39" x2="94.52" y2="257.45" style="fill: none;stroke: red;stroke-miterlimit: 10;stroke-dasharray: 3,3"/>
    <line x1="104.26" y1="195.06" x2="104.26" y2="258.13" style="fill: none;stroke: red;stroke-miterlimit: 10;stroke-dasharray: 3,3"/>
    <line x1="115.13" y1="195.06" x2="115.13" y2="258.13" style="fill: none;stroke: red;stroke-miterlimit: 10;stroke-dasharray: 3,3"/>
    <line x1="126.73" y1="195.06" x2="126.73" y2="258.13" style="fill: none;stroke: red;stroke-miterlimit: 10;stroke-dasharray: 3,3"/>
    <line x1="138.89" y1="195.06" x2="138.89" y2="258.13" style="fill: none;stroke: red;stroke-miterlimit: 10;stroke-dasharray: 3,3"/>
    <line x1="162.65" y1="195.06" x2="162.65" y2="258.13" style="fill: none;stroke: red;stroke-miterlimit: 10;stroke-dasharray: 3,3"/>
    <line x1="176.59" y1="194.69" x2="176.3" y2="257.71" style="fill: none;stroke: red;stroke-miterlimit: 10;stroke-dasharray: 3,3"/>
    <line x1="341.59" y1="265.19" x2="352.67" y2="265.19" style="fill: none"/>
    <line x1="355.93" y1="45.9" x2="358.65" y2="265.19" style="fill: none;stroke: #fff;stroke-miterlimit: 10"/>
    <line x1="341.59" y1="265.19" x2="358.65" y2="265.19" style="fill: none;stroke: #fff;stroke-miterlimit: 10"/>
    <g id="Camada_22" data-name="Camada 22">
      <g>
        <line x1="369.42" y1="354.09" x2="370.92" y2="354.09" style="fill: none;stroke: red;stroke-miterlimit: 10"/>
        <line x1="373.87" y1="354.09" x2="413.62" y2="354.09" style="fill: none;stroke: red;stroke-miterlimit: 10;stroke-dasharray: 2.944791555404663,2.944791555404663"/>
        <line x1="415.09" y1="354.09" x2="416.59" y2="354.09" style="fill: none;stroke: red;stroke-miterlimit: 10"/>
      </g>
      <g>
        <line x1="374.48" y1="363.91" x2="375.98" y2="363.91" style="fill: none;stroke: red;stroke-miterlimit: 10"/>
        <line x1="378.93" y1="363.91" x2="418.72" y2="363.91" style="fill: none;stroke: red;stroke-miterlimit: 10;stroke-dasharray: 2.9476606845855713,2.9476606845855713"/>
        <line x1="420.2" y1="363.91" x2="421.7" y2="363.91" style="fill: none;stroke: red;stroke-miterlimit: 10"/>
      </g>
      <g>
        <line x1="381.33" y1="358.75" x2="382.83" y2="358.8" style="fill: none;stroke: red;stroke-miterlimit: 10"/>
        <line x1="385.94" y1="358.89" x2="415.5" y2="359.77" style="fill: none;stroke: red;stroke-miterlimit: 10;stroke-dasharray: 3.1128876209259033,3.1128876209259033"/>
        <line x1="417.06" y1="359.81" x2="418.56" y2="359.86" style="fill: none;stroke: red;stroke-miterlimit: 10"/>
      </g>
    </g>
  </g>
  <g id="Clock">
    <circle cx="18.94" cy="38.27" r="18.44" style="fill: #f9f19a;stroke: #000;stroke-miterlimit: 10"/>
    <text transform="translate(4.3 42.39)" style="font-size: 12px;font-family: Myriad Pro">Clock</text>
  </g>
  <g id="REM">
    <rect x="423.98" y="174.45" width="90" height="38.76" style="fill: #438dcc;stroke: #000;stroke-miterlimit: 10"/>
    <rect x="423.98" y="174.45" width="45" height="19.38" style="fill: #438dcc;stroke: #000;stroke-miterlimit: 10"/>
    <rect x="468.98" y="174.45" width="45" height="19.38" style="fill: #438dcc;stroke: #000;stroke-miterlimit: 10"/>
    <text transform="translate(429.58 188.97) scale(0.98 1)" style="isolation: isolate;font-size: 14.5343599319458px;font-family: Arial">REM</text>
    <text id="rem_dec" transform="translate(482.02 188.97) scale(0.98 1)" style="isolation: isolate;font-size: 14.5343599319458px;font-family: Arial">000</text>
    <text id="rem_bin" transform="translate(439.56 209.73) scale(0.98 1)" style="isolation: isolate;font-size: 14.5343599319458px;font-family: Arial"><tspan>00000000</tspan></text>
  </g>
  <g id="RDM">
    <rect x="418" y="38.53" width="90" height="38.79" style="fill: #438dcc;stroke: #000;stroke-miterlimit: 10"/>
    <rect x="418" y="38.53" width="45" height="19.4" style="fill: #438dcc;stroke: #000;stroke-miterlimit: 10"/>
    <rect x="463" y="38.53" width="45" height="19.4" style="fill: #438dcc;stroke: #000;stroke-miterlimit: 10"/>
    <text transform="translate(423.6 53.03) scale(0.98 1)" style="isolation: isolate;font-size: 14.546870231628418px;font-family: Arial">RDM</text>
    <text id="rdm_dec" transform="translate(476.04 53.03) scale(0.98 1)" style="isolation: isolate;font-size: 14.546870231628418px;font-family: Arial"><tspan>000</tspan></text>
    <text id="rdm_bin" transform="translate(433.58 73.81) scale(0.98 1)" style="isolation: isolate;font-size: 14.546870231628418px;font-family: Arial"><tspan>00000000</tspan></text>
  </g>
  <g id="RI">
    <rect x="214.98" y="37.41" width="90" height="38.79" style="fill: #438dcc;stroke: #000;stroke-miterlimit: 10"/>
    <rect x="214.98" y="37.41" width="45" height="19.4" style="fill: #438dcc;stroke: #000;stroke-miterlimit: 10"/>
    <rect x="259.98" y="37.41" width="45" height="19.4" style="fill: #438dcc;stroke: #000;stroke-miterlimit: 10"/>
    <text transform="translate(220.52 51.9) scale(0.98 1)" style="isolation: isolate;font-size: 14.546799659729004px;font-family: Arial;white-space: pre">    RI</text>
    <text id="ri_dec" transform="translate(272.96 51.9) scale(0.98 1)" style="isolation: isolate;font-size: 14.546799659729004px;font-family: Arial"><tspan>000</tspan></text>
    <text id="ri_bin" transform="translate(230.5 72.68) scale(0.98 1)" style="isolation: isolate;font-size: 14.546799659729004px;font-family: Arial"><tspan>00000000</tspan></text>
  </g>
  <g id="PC">
    <rect x="218.96" y="174.45" width="90" height="38.76" style="fill: #5493cf;stroke: #000;stroke-miterlimit: 10"/>
    <rect x="218.96" y="174.45" width="45" height="19.38" style="fill: #438dcc;stroke: #000;stroke-miterlimit: 10"/>
    <rect x="263.96" y="174.45" width="45" height="19.38" style="fill: #5493cf;stroke: #000;stroke-miterlimit: 10"/>
    <text transform="translate(224.49 188.97) scale(0.98 1)" style="isolation: isolate;font-size: 14.5343599319458px;font-family: Arial;white-space: pre">    PC</text>
    <text class="pc_dec"  transform="translate(276.93 188.97) scale(0.98 1)" style="isolation: isolate;font-size: 14.5343599319458px;font-family: Arial"><tspan>000</tspan></text>
    <text class="pc_bin"  transform="translate(234.47 209.73) scale(0.98 1)" style="isolation: isolate;font-size: 14.5343599319458px;font-family: Arial"><tspan>00000000</tspan></text>
  </g>
  <g id="AC">
    <rect x="251.45" y="258.71" width="90" height="38.77" style="fill: #438dcc;stroke: #000;stroke-miterlimit: 10"/>
    <rect x="251.45" y="258.71" width="45" height="19.39" style="fill: #438dcc;stroke: #000;stroke-miterlimit: 10"/>
    <rect x="296.45" y="258.71" width="45" height="19.39" style="fill: #438dcc;stroke: #000;stroke-miterlimit: 10"/>
    <text transform="translate(256.98 273.22) scale(0.98 1)" style="isolation: isolate;font-size: 14.540470123291016px;font-family: Arial"><tspan style="white-space: pre">   </tspan><tspan x="12.12" y="0"> </tspan><tspan x="15.36" y="0">AC</tspan></text>
    <text id="ac_dec" transform="translate(309.43 273.22) scale(0.98 1)" style="isolation: isolate;font-size: 14.540470123291016px;font-family: Arial"><tspan>001</tspan></text>
    <text id="ac_bin" transform="translate(266.97 293.99) scale(0.98 1)" style="isolation: isolate;font-size: 14.540470123291016px;font-family: Arial"><tspan>00000000</tspan></text>
  </g>
  <g id="DECODIFICADOR">
    <rect x="41.19" y="18.45" width="120.72" height="54.89" style="fill: #f9f19a;stroke: #000;stroke-miterlimit: 10"/>
    <text transform="translate(47.57 56.71) scale(0.8 1)" style="isolation: isolate;font-size: 16.370359420776367px;font-family: Arial">DECODIFICADOR</text>
  </g>
  <g id="UC">
    <rect x="16.25" y="136.41" width="163.05" height="58.13" style="fill: #f9f19a;stroke: #000;stroke-miterlimit: 10"/>
    <text transform="translate(89.61 170.66) scale(1.02 1)" style="isolation: isolate;font-size: 14.588890075683594px;font-family: Arial">UC</text>
  </g>
  <g id="ULA">
    <polygon points="503.38 378.38 432.48 379.48 396.38 318.88 444.88 317.88 467.28 337.08 488.38 317.68 538.18 316.68 503.38 378.38" style="fill: none;stroke: #000;stroke-linecap: round;stroke-miterlimit: 10"/>
    <text transform="translate(459.23 357.65)" style="isolation: isolate;font-size: 12px;font-family: Arial">UL<tspan x="15.34" y="0">A</tspan></text>
  </g>
  <line x1="162.65" y1="47.1" x2="214.98" y2="47.1" style="fill: none;stroke: #1d1d1b;stroke-linecap: round;stroke-miterlimit: 10"/>
  <line x1="304.98" y1="45.9" x2="418" y2="45.9" style="fill: none;stroke: #1d1d1b;stroke-linecap: round;stroke-miterlimit: 10"/>
  <line x1="421.15" y1="318.37" x2="421.15" y2="278.1" style="fill: none;stroke: #1d1d1b;stroke-linecap: round;stroke-miterlimit: 10"/>
  <line x1="341.59" y1="278.1" x2="421.15" y2="278.1" style="fill: none;stroke: #1d1d1b;stroke-linecap: round;stroke-miterlimit: 10"/>
  <line x1="352.67" y1="45.9" x2="352.67" y2="265.19" style="fill: none;stroke: #1d1d1b;stroke-linecap: round;stroke-miterlimit: 10"/>
  <line x1="341.59" y1="265.19" x2="352.67" y2="265.19" style="fill: none;stroke: #1d1d1b;stroke-linecap: round;stroke-miterlimit: 10"/>
  <line x1="466.82" y1="379.48" x2="466.82" y2="390.19" style="fill: none;stroke: #1d1d1b;stroke-linecap: round;stroke-miterlimit: 10"/>
  <line x1="297.48" y1="297.49" x2="297.41" y2="390.19" style="fill: none;stroke: #1d1d1b;stroke-linecap: round;stroke-miterlimit: 10"/>
  <line x1="466.82" y1="390.19" x2="297.41" y2="390.19" style="fill: none;stroke: #1d1d1b;stroke-linecap: round;stroke-miterlimit: 10"/>
  <line x1="179.3" y1="165.47" x2="188.82" y2="165.47" style="fill: none;stroke: #1d1d1b;stroke-linecap: round;stroke-miterlimit: 10"/>
  <line x1="421.15" y1="307.04" x2="188.82" y2="307.04" style="fill: none;stroke: #1d1d1b;stroke-linecap: round;stroke-miterlimit: 10"/>
  <line x1="188.82" y1="165.47" x2="188.82" y2="307.04" style="fill: none;stroke: #1d1d1b;stroke-linecap: round;stroke-miterlimit: 10"/>
  <line x1="503.76" y1="316.68" x2="503.76" y2="257.45" style="fill: none;stroke: #1d1d1b;stroke-linecap: round;stroke-miterlimit: 10"/>
  <line x1="352.67" y1="252.27" x2="503.92" y2="252.27" style="fill: none;stroke: #1d1d1b;stroke-linecap: round;stroke-miterlimit: 10"/>
  <line x1="503.92" y1="252.27" x2="503.76" y2="268.41" style="fill: none;stroke: #1d1d1b;stroke-linecap: round;stroke-miterlimit: 10"/>
  <line x1="308.96" y1="193.83" x2="352.67" y2="193.83" style="fill: none;stroke: #1d1d1b;stroke-linecap: round;stroke-miterlimit: 10"/>
  <line x1="423.98" y1="193.83" x2="352.67" y2="193.83" style="fill: none;stroke: #1d1d1b;stroke-linecap: round;stroke-miterlimit: 10"/>
  <line x1="218.96" y1="193.83" x2="202.71" y2="193.83" style="fill: none;stroke: #1d1d1b;stroke-linecap: round;stroke-miterlimit: 10"/>
  <line x1="218.96" y1="209.73" x2="202.71" y2="209.73" style="fill: none;stroke: #1d1d1b;stroke-linecap: square;stroke-miterlimit: 10"/>
  <line x1="202.71" y1="193.83" x2="202.71" y2="209.73" style="fill: none;stroke: #1d1d1b;stroke-linecap: round;stroke-miterlimit: 10"/>
  <line x1="508" y1="57.93" x2="563.54" y2="57.93" style="fill: none;stroke: #1d1d1b;stroke-linecap: square;stroke-miterlimit: 10"/>
  <line x1="513.98" y1="193.83" x2="563.54" y2="193.83" style="fill: none;stroke: #1d1d1b;stroke-linecap: square;stroke-miterlimit: 10"/>
  <line x1="232.82" y1="174.45" x2="232.82" y2="168.33" style="fill: none;stroke: #1d1d1b;stroke-linecap: square;stroke-miterlimit: 10"/>
  <line x1="260.83" y1="174.45" x2="260.83" y2="166.39" style="fill: none;stroke: #1d1d1b;stroke-linecap: square;stroke-miterlimit: 10"/>
  <line x1="286.46" y1="174.45" x2="286.46" y2="166.39" style="fill: none;stroke: #1d1d1b;stroke-linecap: square;stroke-miterlimit: 10"/>
</svg>
