<?xml version="1.0" encoding="utf-8"?>
<!-- Generator: Adobe Illustrator 17.0.1, SVG Export Plug-In . SVG Version: 6.00 Build 0)  -->
<!DOCTYPE svg PUBLIC "-//W3C//DTD SVG 1.1//EN" "http://www.w3.org/Graphics/SVG/1.1/DTD/svg11.dtd">
<svg version="1.1" id="tags" xmlns="http://www.w3.org/2000/svg" xmlns:xlink="http://www.w3.org/1999/xlink" x="0px" y="0px"
	 width="612px" height="792px" viewBox="0 0 612 792" enable-background="new 0 0 612 792" xml:space="preserve">
<title>SVG_prot</title>
<g id="tag_x5F_pcr">
	<path fill="#EDEDED" stroke="#1D1D1B" stroke-linecap="round" stroke-miterlimit="10" d="M245.662,344.977h-1.085V319.25h16.178
		v25.726h-1.085c1.291,0,2.105,1.964,1.454,3.526l-6.988,16.905c-0.377,0.803-1.333,1.149-2.136,0.772
		c-0.34-0.159-0.613-0.432-0.772-0.772l-6.933-16.926C243.557,346.93,244.37,344.966,245.662,344.977z"/>
	<path fill="none" stroke="#1D1D1B" stroke-linecap="round" stroke-miterlimit="10" d="M258.172,415.384"/>
	<text transform="matrix(-1.346898e-010 1 -1 -1.346898e-010 250.0991 326.1914)" font-family="'ArialMT'" font-size="9.7653">PCr</text>
</g>
<g id="tag_x5F_remr">
	<path fill="#EDEDED" stroke="#1D1D1B" stroke-linecap="round" stroke-miterlimit="10" d="M450.222,365.993v1.085l-28.081-0.282
		l0.206-16.167l28.07,0.358v1.085c0-1.291,2.17-2.072,3.874-1.411l18.359,7.194c1.703,0.673,1.682,2.279,0,2.908l-18.543,6.716
		C452.316,368.12,450.2,367.285,450.222,365.993z"/>
	
		<line fill="none" stroke="#1D1D1B" stroke-linecap="round" stroke-miterlimit="10" x1="473.68" y1="359.69" x2="487.601" y2="359.69"/>
	
		<line fill="none" stroke="#1D1D1B" stroke-linecap="round" stroke-miterlimit="10" x1="487.601" y1="373.676" x2="487.601" y2="359.69"/>
	<text transform="matrix(1 0 0 1 424.5288 364.5834)" font-family="'ArialMT'" font-size="13.0204">REMr</text>
</g>
<g id="tag_x5F_remw">
	<path fill="#EDEDED" stroke="#1D1D1B" stroke-linecap="round" stroke-miterlimit="10" d="M512.091,353.83v1.085l-28.07-0.358
		l0.206-16.167l28.07,0.358v1.085c0-1.291,2.17-2.072,3.874-1.411l18.359,7.194c1.703,0.673,1.682,2.279,0,2.908l-18.543,6.716
		C514.163,355.946,512.069,355.122,512.091,353.83z"/>
	
		<line fill="none" stroke="#1D1D1B" stroke-linecap="round" stroke-miterlimit="10" x1="535.549" y1="347.526" x2="549.459" y2="347.526"/>
	
		<line fill="none" stroke="#1D1D1B" stroke-linecap="round" stroke-miterlimit="10" x1="549.459" y1="373.328" x2="549.459" y2="347.526"/>
	<text transform="matrix(1 0 0 1 487.0376 351.5845)" font-family="'ArialMT'" font-size="13.0204">REMw</text>
</g>
<g id="tag_x5F_acc">
	<path fill="#EDEDED" stroke="#1D1D1B" stroke-linecap="round" stroke-miterlimit="10" d="M331.086,457.082v1.085l-28.07-0.358
		l0.206-16.167l28.07,0.358v1.085c0-1.291,2.17-2.072,3.874-1.411l18.359,7.194c1.703,0.673,1.682,2.279,0,2.908l-18.543,6.716
		C333.202,459.208,331.075,458.373,331.086,457.082z"/>
	
		<line fill="none" stroke="#1D1D1B" stroke-linecap="round" stroke-miterlimit="10" x1="354.544" y1="450.778" x2="368.465" y2="450.778"/>
	
		<line fill="none" stroke="#1D1D1B" stroke-linecap="round" stroke-miterlimit="10" x1="368.465" y1="464.753" x2="368.465" y2="450.778"/>
	<text transform="matrix(1 0 0 1 306.4995 454.0327)" font-family="'ArialMT'" font-size="13.0204">ACc</text>
</g>
<g id="tag_x5F_acw">
	<path fill="#EDEDED" stroke="#1D1D1B" stroke-linecap="round" stroke-miterlimit="10" d="M248.569,457.082v1.085l-28.07-0.358
		l0.206-16.167l28.07,0.358v1.085c0-1.291,2.17-2.072,3.874-1.411l18.359,7.194c1.703,0.673,1.682,2.279,0,2.908l-18.543,6.716
		C250.685,459.208,248.559,458.373,248.569,457.082z"/>
	
		<line fill="none" stroke="#1D1D1B" stroke-linecap="round" stroke-miterlimit="10" x1="272.028" y1="450.778" x2="285.949" y2="450.778"/>
	
		<line fill="none" stroke="#1D1D1B" stroke-linecap="round" stroke-miterlimit="10" x1="285.949" y1="464.753" x2="285.949" y2="450.778"/>
	<text transform="matrix(1 0 0 1 224.0371 454.0327)" font-family="'ArialMT'" font-size="13.0204">ACw</text>
</g>
<g id="tag_x5F_acr">
	<path fill="#EDEDED" stroke="#1D1D1B" stroke-linecap="round" stroke-miterlimit="10" d="M243.123,491.575v1.085l-28.07-0.358
		l0.206-16.167l28.07,0.358v1.085c0-1.291,2.17-2.072,3.874-1.411l18.359,7.194c1.703,0.673,1.682,2.279,0,2.908l-18.543,6.716
		C245.228,493.745,243.101,492.92,243.123,491.575z"/>
	
		<line fill="none" stroke="#1D1D1B" stroke-linecap="round" stroke-miterlimit="10" x1="266.57" y1="485.325" x2="280.491" y2="485.325"/>
	
		<line fill="none" stroke="#1D1D1B" stroke-linecap="round" stroke-miterlimit="10" x1="272.831" y1="485.792" x2="280.491" y2="485.325"/>
	<text transform="matrix(1 0 0 1 219.9468 489.0473)" font-family="'ArialMT'" font-size="13.0204">ACr</text>
</g>
<g id="tag_x5F_ulaop">
	<path fill="#EDEDED" stroke="#1D1D1B" stroke-linecap="round" stroke-miterlimit="10" d="M391.348,581.426v1.085l-28.059-0.358
		l0.206-16.167l28.059,0.401v1.085c0-1.291,2.17-2.072,3.874-1.411l18.359,7.194c1.703,0.673,1.682,2.279,0,2.908l-18.543,6.716
		C393.464,583.553,391.327,582.717,391.348,581.426z"/>
	
		<line fill="none" stroke="#1D1D1B" stroke-linecap="round" stroke-miterlimit="10" x1="349.325" y1="573.191" x2="363.246" y2="573.191"/>
	<text transform="matrix(1 0 0 1 364.3316 577.8129)" font-family="'ArialMT'" font-size="13.0204">Ula op</text>
</g>
<g id="tag_x5F_riw">
	<path fill="#EDEDED" stroke="#1D1D1B" stroke-linecap="round" stroke-miterlimit="10" d="M258.79,216.531
		c0,1.291,2.17,2.17,3.841,1.508l18.532-6.727c1.725-0.629,1.747-2.235,0-2.908l-18.359-7.194c-1.682-0.662-3.819,0.098-3.874,1.367
		v-1.085l-27.961-0.358l-0.206,16.167l28.059,0.358v-1.085L258.79,216.531z"/>
	
		<line fill="none" stroke="#1D1D1B" stroke-linecap="round" stroke-miterlimit="10" x1="282.249" y1="210.227" x2="296.17" y2="210.227"/>
	
		<line fill="none" stroke="#1D1D1B" stroke-linecap="round" stroke-miterlimit="10" x1="296.17" y1="224.213" x2="296.17" y2="210.227"/>
	<text id="RI_1_" transform="matrix(1 0 0 1 233.2598 213.704)" font-family="'ArialMT'" font-size="13.0204">RIw</text>
</g>
<g id="tag_x5F_rdmr">
	<path fill="#EDEDED" stroke="#1D1D1B" stroke-linecap="round" stroke-miterlimit="10" d="M440.381,218.299v1.085l-28.07-0.358
		l0.206-16.167l28.07,0.358v1.085c0-1.291,2.17-2.072,3.874-1.4l18.359,7.194c1.704,0.673,1.682,2.279,0,2.908l-18.543,6.716
		C442.551,220.426,440.381,219.59,440.381,218.299z"/>
	
		<line fill="none" stroke="#1D1D1B" stroke-linecap="round" stroke-miterlimit="10" x1="463.85" y1="211.995" x2="477.771" y2="211.995"/>
	
		<line fill="none" stroke="#1D1D1B" stroke-linecap="round" stroke-miterlimit="10" x1="477.771" y1="226.003" x2="477.771" y2="211.995"/>
	<text transform="matrix(1 0 0 1 414.6988 215.8692)" font-family="'ArialMT'" font-size="13.0204">RDMr</text>
</g>
<g id="tag_x5F_rdm_x5F_memr">
	<path fill="#EDEDED" stroke="#1D1D1B" stroke-linecap="round" stroke-miterlimit="10" d="M439.838,292.646v1.085l-28.07-0.358
		l0.206-16.167l28.07,0.358v1.085c0-1.291,2.17-2.072,3.874-1.411l18.359,7.194c1.704,0.673,1.682,2.279,0,2.908l-18.641,6.76
		C441.954,294.772,439.828,293.937,439.838,292.646z"/>
	
		<line fill="none" stroke="#1D1D1B" stroke-linecap="round" stroke-miterlimit="10" x1="463.297" y1="286.341" x2="477.218" y2="286.341"/>
	
		<line fill="none" stroke="#1D1D1B" stroke-linecap="round" stroke-miterlimit="10" x1="477.218" y1="267.95" x2="477.218" y2="286.341"/>
	<text transform="matrix(1 0 0 1 414.6988 290.8335)" font-family="'ArialMT'" font-size="13.0204">MEMr</text>
</g>
<g id="tag_x5F_rdm_x5F_memw">
	<path fill="#EDEDED" stroke="#1D1D1B" stroke-linecap="round" stroke-miterlimit="10" d="M508.738,298.852v1.085l-28.07-0.358
		l0.206-16.167l28.07,0.358v1.085c0-1.291,2.17-2.072,3.874-1.411l18.359,7.194c1.703,0.673,1.682,2.279,0,2.908l-18.543,6.716
		C510.832,300.968,508.738,300.143,508.738,298.852z"/>
	
		<line fill="none" stroke="#1D1D1B" stroke-linecap="round" stroke-miterlimit="10" x1="532.174" y1="292.548" x2="546.095" y2="292.548"/>
	
		<line fill="none" stroke="#1D1D1B" stroke-linecap="round" stroke-miterlimit="10" x1="546.095" y1="267.95" x2="546.095" y2="292.548"/>
	<text transform="matrix(1 0 0 1 482.3716 295.6621)" font-family="'ArialMT'" font-size="13.0204">MEMw</text>
</g>
<g id="tag_x5F_rem_x5F_memw">
	<path fill="#EDEDED" stroke="#1D1D1B" stroke-linecap="round" stroke-miterlimit="10" d="M516.333,451.776v1.085l-28.059-0.347
		l0.206-16.167l28.07,0.358v1.085c0-1.291,2.17-2.072,3.874-1.411l18.359,7.194c1.703,0.673,1.682,2.279,0,2.908l-18.543,6.716
		C518.503,453.903,516.333,453.067,516.333,451.776z"/>
	
		<line fill="none" stroke="#1D1D1B" stroke-linecap="round" stroke-miterlimit="10" x1="539.813" y1="445.472" x2="553.734" y2="445.472"/>
	
		<line fill="none" stroke="#1D1D1B" stroke-linecap="round" stroke-miterlimit="10" x1="553.734" y1="415.384" x2="553.734" y2="445.472"/>
	<text transform="matrix(1 0 0 1 489.4898 449.0639)" font-family="'ArialMT'" font-size="13.0204">MEMw</text>
</g>
<g id="tag_x5F_memr">
	<path fill="#EDEDED" stroke="#1D1D1B" stroke-linecap="round" stroke-miterlimit="10" d="M448.898,439.255v1.085l-28.048-0.315
		l0.206-16.167l28.005,0.347v1.085c0-1.291,2.17-2.072,3.874-1.411l18.359,7.194c1.703,0.673,1.682,2.279,0,2.908l-18.543,6.716
		C451.003,441.381,448.877,440.578,448.898,439.255z"/>
	
		<line fill="none" stroke="#1D1D1B" stroke-linecap="round" stroke-miterlimit="10" x1="472.357" y1="432.951" x2="486.267" y2="432.951"/>
	
		<line fill="none" stroke="#1D1D1B" stroke-linecap="round" stroke-miterlimit="10" x1="486.267" y1="415.384" x2="486.267" y2="432.951"/>
	<text transform="matrix(1 0 0 1 424.5288 437.1284)" font-family="'ArialMT'" font-size="13.0204">MEMr</text>
</g>
<g id="tag_x5F_rdmw">
	<path fill="#EDEDED" stroke="#1D1D1B" stroke-linecap="round" stroke-miterlimit="10" d="M509.215,207.709v1.085l-28.059-0.358
		l0.206-16.167l28.059,0.358v1.085c0-1.291,2.17-2.072,3.874-1.4l18.359,7.194c1.703,0.662,1.682,2.279,0,2.908l-18.576,6.792
		C511.331,209.836,509.194,209.001,509.215,207.709z"/>
	
		<line fill="none" stroke="#1D1D1B" stroke-linecap="round" stroke-miterlimit="10" x1="546.594" y1="226.003" x2="546.594" y2="201.405"/>
	
		<line fill="none" stroke="#1D1D1B" stroke-linecap="round" stroke-miterlimit="10" x1="532.674" y1="201.405" x2="546.594" y2="201.405"/>
	<text transform="matrix(1 0 0 1 483.4576 205.5502)" font-family="'ArialMT'" font-size="13.0204">RDMw</text>
</g>
<g id="tag_x5F_pc_x2B_">
	<path fill="#EDEDED" stroke="#1D1D1B" stroke-linecap="round" stroke-miterlimit="10" d="M317.773,344.13h1.085v-25.726H302.68
		v25.726h1.085c-1.291,0-2.094,1.964-1.443,3.526l7.064,16.97c0.377,0.803,1.333,1.149,2.136,0.772
		c0.34-0.159,0.613-0.432,0.772-0.772l6.933-16.926C319.878,346.083,319.064,344.13,317.773,344.13z"/>
	<path fill="none" stroke="#1D1D1B" stroke-linecap="round" stroke-miterlimit="10" d="M314.442,415.384"/>
	<path fill="none" stroke="#1D1D1B" stroke-linecap="round" stroke-miterlimit="10" d="M309.385,364.626"/>
	<text transform="matrix(-1.346898e-010 1 -1 -1.346898e-010 306.9995 322.0073)" font-family="'ArialMT'" font-size="9.7653">PC+</text>
</g>
<g id="tag_x5F_pcw">
	<path fill="#EDEDED" stroke="#1D1D1B" stroke-linecap="round" stroke-miterlimit="10" d="M289.193,344.13h1.085v-25.726H274.1
		v25.726h1.085c-1.291,0-2.094,1.964-1.443,3.526l7.064,16.97c0.376,0.803,1.333,1.149,2.136,0.772
		c0.34-0.159,0.613-0.432,0.772-0.772l6.933-16.926C291.298,346.083,290.484,344.13,289.193,344.13z"/>
	<path fill="none" stroke="#1D1D1B" stroke-linecap="round" stroke-miterlimit="10" d="M287.88,415.384"/>
	<path fill="none" stroke="#1D1D1B" stroke-linecap="round" stroke-miterlimit="10" d="M283.714,364.626"/>
	<text transform="matrix(-1.346898e-010 1 -1 -1.346898e-010 278.7515 322.0073)" font-family="'ArialMT'" font-size="9.7653">PCw</text>
</g>
<g id="LC">
	
		<line fill="none" stroke="#FF0000" stroke-miterlimit="10" stroke-dasharray="3,3" x1="23.545" y1="245.36" x2="23.545" y2="332.054"/>
	
		<line fill="none" stroke="#FF0000" stroke-miterlimit="10" stroke-dasharray="3,3" x1="44.692" y1="263.621" x2="44.692" y2="332.054"/>
	
		<line fill="none" stroke="#FF0000" stroke-miterlimit="10" stroke-dasharray="3,3" x1="51.615" y1="263.621" x2="51.615" y2="332.054"/>
	
		<line fill="none" stroke="#FF0000" stroke-miterlimit="10" stroke-dasharray="3,3" x1="60.686" y1="263.621" x2="60.686" y2="332.054"/>
	
		<line fill="none" stroke="#FF0000" stroke-miterlimit="10" stroke-dasharray="3,3" x1="70.711" y1="263.621" x2="70.711" y2="332.054"/>
	
		<line fill="none" stroke="#FF0000" stroke-miterlimit="10" stroke-dasharray="3,3" x1="78.968" y1="263.621" x2="78.968" y2="332.054"/>
	
		<line fill="none" stroke="#FF0000" stroke-miterlimit="10" stroke-dasharray="3,3" x1="87.15" y1="263.621" x2="87.15" y2="332.054"/>
	
		<line fill="none" stroke="#FF0000" stroke-miterlimit="10" stroke-dasharray="3,3" x1="94.886" y1="263.621" x2="94.886" y2="332.054"/>
	
		<line fill="none" stroke="#FF0000" stroke-miterlimit="10" stroke-dasharray="3,3" x1="105.508" y1="263.621" x2="105.508" y2="332.054"/>
	
		<line fill="none" stroke="#FF0000" stroke-miterlimit="10" stroke-dasharray="3,3" x1="116.717" y1="263.621" x2="116.717" y2="332.054"/>
	
		<line fill="none" stroke="#FF0000" stroke-miterlimit="10" stroke-dasharray="3,3" x1="126.731" y1="263.621" x2="126.731" y2="332.054"/>
	
		<line fill="none" stroke="#FF0000" stroke-miterlimit="10" stroke-dasharray="3,3" x1="138.526" y1="263.621" x2="138.526" y2="332.054"/>
	
		<line fill="none" stroke="#FF0000" stroke-miterlimit="10" stroke-dasharray="3,3" x1="146.783" y1="263.621" x2="146.783" y2="332.054"/>
	
		<line fill="none" stroke="#FF0000" stroke-miterlimit="10" stroke-dasharray="3,3" x1="155.626" y1="263.621" x2="155.626" y2="332.054"/>
	
		<line fill="none" stroke="#FF0000" stroke-miterlimit="10" stroke-dasharray="3,3" x1="163.297" y1="263.621" x2="163.297" y2="332.054"/>
	
		<line fill="none" stroke="#FF0000" stroke-miterlimit="10" stroke-dasharray="3,3" x1="172.14" y1="263.621" x2="172.14" y2="332.054"/>
	
		<line fill="none" stroke="#FF0000" stroke-miterlimit="10" stroke-dasharray="3,3" x1="19.205" y1="395.289" x2="19.205" y2="463.722"/>
	
		<line fill="none" stroke="#FF0000" stroke-miterlimit="10" stroke-dasharray="3,3" x1="32.488" y1="395.691" x2="32.488" y2="464.124"/>
	
		<line fill="none" stroke="#FF0000" stroke-miterlimit="10" stroke-dasharray="3,3" x1="43.824" y1="395.691" x2="43.824" y2="464.124"/>
	
		<line fill="none" stroke="#FF0000" stroke-miterlimit="10" stroke-dasharray="3,3" x1="56.02" y1="395.691" x2="56.02" y2="464.124"/>
	
		<line fill="none" stroke="#FF0000" stroke-miterlimit="10" stroke-dasharray="3,3" x1="163.297" y1="395.691" x2="163.297" y2="464.124"/>
	
		<line fill="none" stroke="#FF0000" stroke-miterlimit="10" stroke-dasharray="3,3" x1="68.541" y1="394.964" x2="68.541" y2="463.386"/>
	
		<line fill="none" stroke="#FF0000" stroke-miterlimit="10" stroke-dasharray="3,3" x1="80.053" y1="394.964" x2="80.053" y2="463.386"/>
	
		<line fill="none" stroke="#FF0000" stroke-miterlimit="10" stroke-dasharray="3,3" x1="91.262" y1="394.964" x2="91.262" y2="463.386"/>
	
		<line fill="none" stroke="#FF0000" stroke-miterlimit="10" stroke-dasharray="3,3" x1="102.557" y1="394.964" x2="102.557" y2="463.386"/>
	
		<line fill="none" stroke="#FF0000" stroke-miterlimit="10" stroke-dasharray="3,3" x1="113.125" y1="395.691" x2="113.125" y2="464.124"/>
	
		<line fill="none" stroke="#FF0000" stroke-miterlimit="10" stroke-dasharray="3,3" x1="124.919" y1="395.691" x2="124.919" y2="464.124"/>
	
		<line fill="none" stroke="#FF0000" stroke-miterlimit="10" stroke-dasharray="3,3" x1="137.506" y1="395.691" x2="137.506" y2="464.124"/>
	
		<line fill="none" stroke="#FF0000" stroke-miterlimit="10" stroke-dasharray="3,3" x1="150.7" y1="395.691" x2="150.7" y2="464.124"/>
	
		<line fill="none" stroke="#FF0000" stroke-miterlimit="10" stroke-dasharray="3,3" x1="176.48" y1="395.691" x2="176.48" y2="464.124"/>
	
		<line fill="none" stroke="#FF0000" stroke-miterlimit="10" stroke-dasharray="3,3" x1="191.605" y1="395.289" x2="191.291" y2="463.668"/>
	<line fill="none" x1="370.635" y1="471.784" x2="382.657" y2="471.784"/>
	<line fill="none" stroke="#FFFFFF" stroke-miterlimit="10" x1="386.195" y1="233.848" x2="389.146" y2="471.784"/>
	<line fill="none" stroke="#FFFFFF" stroke-miterlimit="10" x1="370.635" y1="471.784" x2="389.146" y2="471.784"/>
	<g id="Camada_22">
		<g>
			<line fill="none" stroke="#FF0000" stroke-miterlimit="10" x1="400.832" y1="568.243" x2="402.459" y2="568.243"/>
			
				<line fill="none" stroke="#FF0000" stroke-miterlimit="10" stroke-dasharray="2.9448,2.9448" x1="405.66" y1="568.243" x2="448.79" y2="568.243"/>
			<line fill="none" stroke="#FF0000" stroke-miterlimit="10" x1="450.385" y1="568.243" x2="452.012" y2="568.243"/>
		</g>
		<g>
			<line fill="none" stroke="#FF0000" stroke-miterlimit="10" x1="406.322" y1="578.898" x2="407.949" y2="578.898"/>
			
				<line fill="none" stroke="#FF0000" stroke-miterlimit="10" stroke-dasharray="2.9477,2.9477" x1="411.15" y1="578.898" x2="454.324" y2="578.898"/>
			<line fill="none" stroke="#FF0000" stroke-miterlimit="10" x1="455.929" y1="578.898" x2="457.557" y2="578.898"/>
		</g>
		<g>
			<line fill="none" stroke="#FF0000" stroke-miterlimit="10" x1="413.754" y1="573.299" x2="415.382" y2="573.354"/>
			
				<line fill="none" stroke="#FF0000" stroke-miterlimit="10" stroke-dasharray="3.1129,3.1129" x1="418.756" y1="573.451" x2="450.83" y2="574.406"/>
			<line fill="none" stroke="#FF0000" stroke-miterlimit="10" x1="452.522" y1="574.449" x2="454.15" y2="574.504"/>
		</g>
	</g>
</g>
<g id="Clock">
	<circle fill="#F9F19A" stroke="#000000" stroke-miterlimit="10" cx="20.55" cy="225.569" r="20.008"/>
	<text transform="matrix(1 0 0 1 4.666 230.0396)" font-family="'MyriadPro-Regular'" font-size="13.0204">Clock</text>
</g>
<g id="REM">
	<rect x="460.031" y="373.328" fill="#438DCC" stroke="#000000" stroke-miterlimit="10" width="97.653" height="42.056"/>
	<rect x="460.031" y="373.328" fill="#438DCC" stroke="#000000" stroke-miterlimit="10" width="48.826" height="21.028"/>
	<rect x="508.857" y="373.328" fill="#438DCC" stroke="#000000" stroke-miterlimit="10" width="48.826" height="21.028"/>
	<text transform="matrix(0.98 0 0 1 466.106 389.083)" font-family="'ArialMT'" font-size="15.7702">REM</text>
	<text id="rem_dec" transform="matrix(0.98 0 0 1 523.0054 389.083)" font-family="'ArialMT'" font-size="15.7702">000</text>
	<text transform="matrix(0.98 0 0 1 476.9351 411.6085)" font-family="'ArialMT'" font-size="15.7702">00000000</text>
</g>
<g id="RDM">
	<rect x="453.542" y="225.851" fill="#438DCC" stroke="#000000" stroke-miterlimit="10" width="97.653" height="42.088"/>
	<rect x="453.542" y="225.851" fill="#438DCC" stroke="#000000" stroke-miterlimit="10" width="48.826" height="21.05"/>
	<rect x="502.369" y="225.851" fill="#438DCC" stroke="#000000" stroke-miterlimit="10" width="48.826" height="21.05"/>
	<text transform="matrix(0.98 0 0 1 459.6177 241.5841)" font-family="'ArialMT'" font-size="15.7838">RDM</text>
	<text transform="matrix(0.98 0 0 1 516.5171 241.5841)" font-family="'ArialMT'" font-size="15.7838">000</text>
	<text transform="matrix(0.98 0 0 1 470.4468 264.1313)" font-family="'ArialMT'" font-size="15.7838">00000000</text>
</g>
<g id="RI">
	<rect x="233.26" y="224.636" fill="#438DCC" stroke="#000000" stroke-miterlimit="10" width="97.653" height="42.088"/>
	<rect x="233.26" y="224.636" fill="#438DCC" stroke="#000000" stroke-miterlimit="10" width="48.826" height="21.05"/>
	<rect x="282.086" y="224.636" fill="#438DCC" stroke="#000000" stroke-miterlimit="10" width="48.826" height="21.05"/>
	<text transform="matrix(0.98 0 0 1 239.2701 240.3579)" font-family="'ArialMT'" font-size="15.7837">RI</text>
	<text transform="matrix(0.98 0 0 1 296.169 240.3579)" font-family="'ArialMT'" font-size="15.7837">000</text>
	<text transform="matrix(0.98 0 0 1 250.0987 262.9048)" font-family="'ArialMT'" font-size="15.7837">00000000</text>
</g>
<g id="PC">
	<rect x="237.578" y="373.328" fill="#5493CF" stroke="#000000" stroke-miterlimit="10" width="97.653" height="42.056"/>
	<rect x="237.578" y="373.328" fill="#438DCC" stroke="#000000" stroke-miterlimit="10" width="48.826" height="21.028"/>
	<rect x="286.404" y="373.328" fill="#5493CF" stroke="#000000" stroke-miterlimit="10" width="48.826" height="21.028"/>
	<text transform="matrix(0.98 0 0 1 243.5777 389.083)" font-family="'ArialMT'" font-size="15.7702">PC</text>
	<text transform="matrix(0.98 0 0 1 300.4761 389.083)" font-family="'ArialMT'" font-size="15.7702">000</text>
	<text transform="matrix(0.98 0 0 1 254.4063 411.6085)" font-family="'ArialMT'" font-size="15.7702">00000000</text>
</g>
<g id="AC">
	<rect x="272.831" y="464.753" fill="#438DCC" stroke="#000000" stroke-miterlimit="10" width="97.653" height="42.067"/>
	<rect x="272.831" y="464.753" fill="#438DCC" stroke="#000000" stroke-miterlimit="10" width="48.826" height="21.039"/>
	<rect x="321.657" y="464.753" fill="#438DCC" stroke="#000000" stroke-miterlimit="10" width="48.826" height="21.039"/>
	<text transform="matrix(0.98 0 0 1 295.1631 480.4966)" font-family="'ArialMT'" font-size="15.7768">AC</text>
	<text transform="matrix(0.98 0 0 1 335.7398 480.4966)" font-family="'ArialMT'" font-size="15.7768">001</text>
	<text transform="matrix(0.98 0 0 1 289.6695 503.0327)" font-family="'ArialMT'" font-size="15.7768">00000000</text>
</g>
<g id="DECODIFICADOR">
	<rect x="44.692" y="204.064" fill="#F9F19A" stroke="#000000" stroke-miterlimit="10" width="130.985" height="59.557"/>
	<text transform="matrix(0.8 0 0 1 51.6148 245.5772)" font-family="'ArialMT'" font-size="17.7623">DECODIFICADOR</text>
</g>
<g id="uc">
	<g id="tag_x5F_uc_x5F_acw">
		<g id="tag_x5F_pcr_15_">
			<path fill="#EDEDED" stroke="#1D1D1B" stroke-linecap="round" stroke-miterlimit="10" d="M157.722,488.049h1.085v25.726h-16.178
				v-25.726h1.085c-1.291,0-2.105-1.964-1.454-3.526l6.988-16.905c0.377-0.803,1.333-1.149,2.136-0.772
				c0.34,0.159,0.613,0.432,0.772,0.772l6.933,16.926C159.827,486.096,159.013,488.06,157.722,488.049z"/>
			<path fill="none" stroke="#1D1D1B" stroke-linecap="round" stroke-miterlimit="10" d="M145.211,417.642"/>
			<text transform="matrix(2.244830e-010 -1 1 2.244830e-010 153.2842 506.834)" font-family="'ArialMT'" font-size="9.7653">ACw</text>
		</g>
		
			<line fill="none" stroke="#1D1D1B" stroke-linecap="square" stroke-miterlimit="10" x1="319.617" y1="415.328" x2="319.617" y2="408.688"/>
	</g>
	<g id="tag_x5F_uc_x5F_acc">
		<g id="tag_x5F_pcr_14_">
			<path fill="#EDEDED" stroke="#1D1D1B" stroke-linecap="round" stroke-miterlimit="10" d="M170.319,441.795h1.085v25.726h-16.178
				v-25.726h1.085c-1.291,0-2.105-1.964-1.454-3.526l6.988-16.905c0.377-0.803,1.333-1.149,2.136-0.772
				c0.34,0.159,0.613,0.432,0.772,0.772l6.933,16.926C172.424,439.842,171.61,441.806,170.319,441.795z"/>
			<path fill="none" stroke="#1D1D1B" stroke-linecap="round" stroke-miterlimit="10" d="M157.809,371.388"/>
			<text transform="matrix(2.244830e-010 -1 1 2.244830e-010 165.8814 460.5801)" font-family="'ArialMT'" font-size="9.7653">ACc</text>
		</g>
		
			<line fill="none" stroke="#1D1D1B" stroke-linecap="square" stroke-miterlimit="10" x1="319.617" y1="415.328" x2="319.617" y2="408.688"/>
	</g>
	<g id="tag_x5F_uc_x5F_ulaop">
		<g id="tag_x5F_pcr_13_">
			<path fill="#EDEDED" stroke="#1D1D1B" stroke-linecap="round" stroke-miterlimit="10" d="M183.699,488.833h1.085v25.726h-16.178
				v-25.726h1.085c-1.291,0-2.105-1.964-1.454-3.526l6.988-16.905c0.377-0.803,1.333-1.149,2.136-0.772
				c0.34,0.159,0.613,0.432,0.772,0.772l6.933,16.926C185.804,486.88,184.99,488.843,183.699,488.833z"/>
			<path fill="none" stroke="#1D1D1B" stroke-linecap="round" stroke-miterlimit="10" d="M171.189,418.425"/>
			<text transform="matrix(2.244830e-010 -1 1 2.244830e-010 179.2616 507.6191)" font-family="'ArialMT'" font-size="9.7653">Ula op</text>
		</g>
		
			<line fill="none" stroke="#1D1D1B" stroke-linecap="square" stroke-miterlimit="10" x1="319.617" y1="415.328" x2="319.617" y2="408.688"/>
	</g>
	<g id="tag_x5F_uc_x5F_remw">
		<g id="tag_x5F_pcr_12_">
			<path fill="#EDEDED" stroke="#1D1D1B" stroke-linecap="round" stroke-miterlimit="10" d="M133.753,487.847h1.085v25.726h-16.178
				v-25.726h1.085c-1.291,0-2.105-1.964-1.454-3.526l6.988-16.905c0.377-0.803,1.333-1.149,2.136-0.772
				c0.34,0.159,0.613,0.432,0.772,0.772l6.933,16.926C135.858,485.894,135.045,487.858,133.753,487.847z"/>
			<path fill="none" stroke="#1D1D1B" stroke-linecap="round" stroke-miterlimit="10" d="M121.243,417.44"/>
			<text transform="matrix(2.244830e-010 -1 1 2.244830e-010 129.3159 506.6328)" font-family="'ArialMT'" font-size="9.7653">REMw</text>
		</g>
		
			<line fill="none" stroke="#1D1D1B" stroke-linecap="square" stroke-miterlimit="10" x1="319.617" y1="415.328" x2="319.617" y2="408.688"/>
	</g>
	<g id="not" display="none">
		<g id="tag_x5F_pcr_11_" display="inline">
			<path fill="#EDEDED" stroke="#1D1D1B" stroke-linecap="round" stroke-miterlimit="10" d="M198.313,441.982h1.085v25.726H183.22
				v-25.726h1.085c-1.291,0-2.105-1.964-1.454-3.526l6.988-16.905c0.377-0.803,1.333-1.149,2.136-0.772
				c0.34,0.159,0.613,0.432,0.772,0.772l6.933,16.926C200.418,440.029,199.604,441.993,198.313,441.982z"/>
			<path fill="none" stroke="#1D1D1B" stroke-linecap="round" stroke-miterlimit="10" d="M185.802,371.575"/>
			<text transform="matrix(2.244830e-010 -1 1 2.244830e-010 193.8751 460.7676)" font-family="'ArialMT'" font-size="9.7653">PCr</text>
		</g>
		
			<line display="inline" fill="none" stroke="#1D1D1B" stroke-linecap="square" stroke-miterlimit="10" x1="319.617" y1="415.328" x2="319.617" y2="408.688"/>
	</g>
	<g id="tag_x5F_uc_x5F_acr">
		<g id="tag_x5F_pcr_10_">
			<path fill="#EDEDED" stroke="#1D1D1B" stroke-linecap="round" stroke-miterlimit="10" d="M145.112,438.982h1.085v25.726H130.02
				v-25.726h1.085c-1.291,0-2.105-1.964-1.454-3.526l6.988-16.905c0.377-0.803,1.333-1.149,2.136-0.772
				c0.34,0.159,0.613,0.432,0.772,0.772l6.933,16.926C147.217,437.029,146.403,438.993,145.112,438.982z"/>
			<path fill="none" stroke="#1D1D1B" stroke-linecap="round" stroke-miterlimit="10" d="M132.602,368.575"/>
			<text transform="matrix(2.244830e-010 -1 1 2.244830e-010 140.6747 457.7695)" font-family="'ArialMT'" font-size="9.7653">ACr</text>
		</g>
		
			<line fill="none" stroke="#1D1D1B" stroke-linecap="square" stroke-miterlimit="10" x1="319.617" y1="415.328" x2="319.617" y2="408.688"/>
	</g>
	<g id="tag_x5F_uc_x5F_remr">
		<g id="tag_x5F_pcr_9_">
			<path fill="#EDEDED" stroke="#1D1D1B" stroke-linecap="round" stroke-miterlimit="10" d="M121.972,439.306h1.085v25.726h-16.178
				v-25.726h1.085c-1.291,0-2.105-1.964-1.454-3.526l6.988-16.905c0.377-0.803,1.333-1.149,2.136-0.772
				c0.34,0.159,0.613,0.432,0.772,0.772l6.933,16.926C124.077,437.353,123.263,439.317,121.972,439.306z"/>
			<path fill="none" stroke="#1D1D1B" stroke-linecap="round" stroke-miterlimit="10" d="M109.461,368.899"/>
			<text transform="matrix(2.244830e-010 -1 1 2.244830e-010 117.5342 458.0918)" font-family="'ArialMT'" font-size="9.7653">REMr</text>
		</g>
		
			<line fill="none" stroke="#1D1D1B" stroke-linecap="square" stroke-miterlimit="10" x1="319.617" y1="415.328" x2="319.617" y2="408.688"/>
	</g>
	<g id="tag_x5F_uc_x5F_pcplus">
		<g id="tag_x5F_pcr_8_">
			<path fill="#EDEDED" stroke="#1D1D1B" stroke-linecap="round" stroke-miterlimit="10" d="M110.303,488.049h1.085v25.726H95.21
				v-25.726h1.085c-1.291,0-2.105-1.964-1.454-3.526l6.988-16.905c0.377-0.803,1.333-1.149,2.136-0.772
				c0.34,0.159,0.613,0.432,0.772,0.772l6.933,16.926C112.408,486.096,111.594,488.06,110.303,488.049z"/>
			<path fill="none" stroke="#1D1D1B" stroke-linecap="round" stroke-miterlimit="10" d="M97.792,417.642"/>
			<text transform="matrix(2.244830e-010 -1 1 2.244830e-010 105.8653 506.8359)" font-family="'ArialMT'" font-size="9.7653">PC+</text>
		</g>
		
			<line fill="none" stroke="#1D1D1B" stroke-linecap="square" stroke-miterlimit="10" x1="319.617" y1="415.328" x2="319.617" y2="408.688"/>
	</g>
	<g id="tag_x5F_uc_x5F_pcw">
		<g id="tag_x5F_pcr_7_">
			<path fill="#EDEDED" stroke="#1D1D1B" stroke-linecap="round" stroke-miterlimit="10" d="M98.284,439.953h1.085v25.726H83.191
				v-25.726h1.085c-1.291,0-2.105-1.964-1.454-3.526l6.988-16.905c0.377-0.803,1.333-1.149,2.136-0.772
				c0.34,0.159,0.613,0.432,0.772,0.772l6.933,16.926C100.389,438,99.575,439.964,98.284,439.953z"/>
			<path fill="none" stroke="#1D1D1B" stroke-linecap="round" stroke-miterlimit="10" d="M85.773,369.545"/>
			<text transform="matrix(2.244830e-010 -1 1 2.244830e-010 93.8463 458.7383)" font-family="'ArialMT'" font-size="9.7653">PCw</text>
		</g>
		
			<line fill="none" stroke="#1D1D1B" stroke-linecap="square" stroke-miterlimit="10" x1="319.617" y1="415.328" x2="319.617" y2="408.688"/>
	</g>
	<g id="tag_x5F_uc_x5F_pcr">
		<g id="tag_x5F_pcr_6_">
			<path fill="#EDEDED" stroke="#1D1D1B" stroke-linecap="round" stroke-miterlimit="10" d="M87.076,487.862h1.085v25.726H71.983
				v-25.726h1.085c-1.291,0-2.105-1.964-1.454-3.526l6.988-16.905c0.377-0.803,1.333-1.149,2.136-0.772
				c0.34,0.159,0.613,0.432,0.772,0.772l6.933,16.926C89.18,485.909,88.367,487.873,87.076,487.862z"/>
			<path fill="none" stroke="#1D1D1B" stroke-linecap="round" stroke-miterlimit="10" d="M74.565,417.455"/>
			<text transform="matrix(2.244830e-010 -1 1 2.244830e-010 82.6379 506.6484)" font-family="'ArialMT'" font-size="9.7653">PCr</text>
		</g>
		
			<line fill="none" stroke="#1D1D1B" stroke-linecap="square" stroke-miterlimit="10" x1="319.617" y1="415.328" x2="319.617" y2="408.688"/>
	</g>
	<g id="tag_x5F_uc_x5F_memw">
		<g id="tag_x5F_pcr_5_">
			<path fill="#EDEDED" stroke="#1D1D1B" stroke-linecap="round" stroke-miterlimit="10" d="M75.733,439.982h1.085v25.726H60.641
				v-25.726h1.085c-1.291,0-2.105-1.964-1.454-3.526l6.988-16.905c0.377-0.803,1.333-1.149,2.136-0.772
				c0.34,0.159,0.613,0.432,0.772,0.772l6.933,16.926C77.838,438.029,77.025,439.993,75.733,439.982z"/>
			<path fill="none" stroke="#1D1D1B" stroke-linecap="round" stroke-miterlimit="10" d="M63.223,369.575"/>
			<text transform="matrix(2.244830e-010 -1 1 2.244830e-010 71.2958 458.7676)" font-family="'ArialMT'" font-size="9.7653">MEMw</text>
		</g>
		
			<line fill="none" stroke="#1D1D1B" stroke-linecap="square" stroke-miterlimit="10" x1="319.617" y1="415.328" x2="319.617" y2="408.688"/>
	</g>
	<g id="tag_x5F_uc_x5F_memr">
		<g id="tag_x5F_pcr_4_">
			<path fill="#EDEDED" stroke="#1D1D1B" stroke-linecap="round" stroke-miterlimit="10" d="M63.219,487.862h1.085v25.726H48.127
				v-25.726h1.085c-1.291,0-2.105-1.964-1.454-3.526l6.988-16.905c0.377-0.803,1.333-1.149,2.136-0.772
				c0.34,0.159,0.613,0.432,0.772,0.772l6.933,16.926C65.324,485.909,64.511,487.873,63.219,487.862z"/>
			<path fill="none" stroke="#1D1D1B" stroke-linecap="round" stroke-miterlimit="10" d="M50.709,417.455"/>
			<text transform="matrix(2.244830e-010 -1 1 2.244830e-010 58.7818 506.6484)" font-family="'ArialMT'" font-size="9.7653">MEMr</text>
		</g>
		
			<line fill="none" stroke="#1D1D1B" stroke-linecap="square" stroke-miterlimit="10" x1="319.617" y1="415.328" x2="319.617" y2="408.688"/>
	</g>
	<g id="tag_x5F_uc_x5F_rdmw">
		<g id="tag_x5F_pcr_3_">
			<path fill="#EDEDED" stroke="#1D1D1B" stroke-linecap="round" stroke-miterlimit="10" d="M50.846,439.669h1.085v25.726H35.754
				v-25.726h1.085c-1.291,0-2.105-1.964-1.454-3.526l6.988-16.905c0.377-0.803,1.333-1.149,2.136-0.772
				c0.34,0.159,0.613,0.432,0.772,0.772l6.933,16.926C52.951,437.716,52.138,439.68,50.846,439.669z"/>
			<path fill="none" stroke="#1D1D1B" stroke-linecap="round" stroke-miterlimit="10" d="M38.336,369.262"/>
			<text transform="matrix(2.244830e-010 -1 1 2.244830e-010 46.4088 458.4531)" font-family="'ArialMT'" font-size="9.7653">RDMw</text>
		</g>
		
			<line fill="none" stroke="#1D1D1B" stroke-linecap="square" stroke-miterlimit="10" x1="319.617" y1="415.328" x2="319.617" y2="408.688"/>
	</g>
	<g id="tag_x5F_uc_x5F_riw_1_">
		<g id="tag_x5F_pcr_2_">
			<path fill="#EDEDED" stroke="#1D1D1B" stroke-linecap="round" stroke-miterlimit="10" d="M27.573,441.982h1.085v25.726H12.48
				v-25.726h1.085c-1.291,0-2.105-1.964-1.454-3.526l6.988-16.905c0.377-0.803,1.333-1.149,2.136-0.772
				c0.34,0.159,0.613,0.432,0.772,0.772l6.933,16.926C29.677,440.029,28.864,441.993,27.573,441.982z"/>
			<path fill="none" stroke="#1D1D1B" stroke-linecap="round" stroke-miterlimit="10" d="M15.062,371.575"/>
			<text transform="matrix(2.244830e-010 -1 1 2.244830e-010 23.1349 460.7676)" font-family="'ArialMT'" font-size="9.7653">RIW</text>
		</g>
		
			<line fill="none" stroke="#1D1D1B" stroke-linecap="square" stroke-miterlimit="10" x1="319.617" y1="415.328" x2="319.617" y2="408.688"/>
	</g>
	<g id="tag_x5F_uc_x5F_rdmr">
		<g id="tag_x5F_pcr_1_">
			<path fill="#EDEDED" stroke="#1D1D1B" stroke-linecap="round" stroke-miterlimit="10" d="M38.912,488.373h1.085v25.726H23.819
				v-25.726h1.085c-1.291,0-2.105-1.964-1.454-3.526l6.988-16.905c0.377-0.803,1.333-1.149,2.136-0.772
				c0.34,0.159,0.613,0.432,0.772,0.772l6.933,16.926C41.016,486.42,40.203,488.384,38.912,488.373z"/>
			<path fill="none" stroke="#1D1D1B" stroke-linecap="round" stroke-miterlimit="10" d="M26.401,417.966"/>
			<text transform="matrix(2.244830e-010 -1 1 2.244830e-010 34.4735 507.1563)" font-family="'ArialMT'" font-size="9.7653">RDMr</text>
		</g>
	</g>
</g>
<g id="UC">
	<rect x="17.632" y="332.054" fill="#F9F19A" stroke="#000000" stroke-miterlimit="10" width="176.914" height="63.073"/>
	<text transform="matrix(1.02 0 0 1 97.23 369.2163)" font-family="'ArialMT'" font-size="15.8294">UC</text>
</g>
<g id="ULA">
	<polygon fill="none" stroke="#000000" stroke-linecap="round" stroke-miterlimit="10" points="546.182,594.598 469.254,595.792 
		430.084,530.039 482.708,528.954 507.013,549.787 529.907,528.737 583.941,527.652 	"/>
	<text transform="matrix(1 0 0 1 498.2788 572.1059)" font-family="'ArialMT'" font-size="13.0204">UL</text>
	<text transform="matrix(1 0 0 1 514.9233 572.1059)" font-family="'ArialMT'" font-size="13.0204">A</text>
</g>
<line fill="none" stroke="#1D1D1B" stroke-linecap="round" stroke-miterlimit="10" x1="176.48" y1="235.15" x2="233.26" y2="235.15"/>
<line fill="none" stroke="#1D1D1B" stroke-linecap="round" stroke-miterlimit="10" x1="330.912" y1="233.848" x2="453.542" y2="233.848"/>
<line fill="none" stroke="#1D1D1B" stroke-linecap="round" stroke-miterlimit="10" x1="456.96" y1="529.486" x2="456.96" y2="485.792"/>
<line fill="none" stroke="#1D1D1B" stroke-linecap="round" stroke-miterlimit="10" x1="370.635" y1="485.792" x2="456.96" y2="485.792"/>
<line fill="none" stroke="#1D1D1B" stroke-linecap="round" stroke-miterlimit="10" x1="382.657" y1="233.848" x2="382.657" y2="471.784"/>
<line fill="none" stroke="#1D1D1B" stroke-linecap="round" stroke-miterlimit="10" x1="370.635" y1="471.784" x2="382.657" y2="471.784"/>
<line fill="none" stroke="#1D1D1B" stroke-linecap="round" stroke-miterlimit="10" x1="506.513" y1="595.792" x2="506.513" y2="607.413"/>
<line fill="none" stroke="#1D1D1B" stroke-linecap="round" stroke-miterlimit="10" x1="322.775" y1="506.83" x2="322.699" y2="607.413"/>
<line fill="none" stroke="#1D1D1B" stroke-linecap="round" stroke-miterlimit="10" x1="506.513" y1="607.413" x2="322.699" y2="607.413"/>
<line fill="none" stroke="#1D1D1B" stroke-linecap="round" stroke-miterlimit="10" x1="194.546" y1="363.585" x2="204.875" y2="363.585"/>
<line fill="none" stroke="#1D1D1B" stroke-linecap="round" stroke-miterlimit="10" x1="456.96" y1="517.192" x2="204.875" y2="517.192"/>
<line fill="none" stroke="#1D1D1B" stroke-linecap="round" stroke-miterlimit="10" x1="204.875" y1="363.585" x2="204.875" y2="517.192"/>
<line fill="none" stroke="#1D1D1B" stroke-linecap="round" stroke-miterlimit="10" x1="546.594" y1="527.652" x2="546.594" y2="463.386"/>
<line fill="none" stroke="#1D1D1B" stroke-linecap="round" stroke-miterlimit="10" x1="382.657" y1="457.765" x2="546.768" y2="457.765"/>
<line fill="none" stroke="#1D1D1B" stroke-linecap="round" stroke-miterlimit="10" x1="546.768" y1="457.765" x2="546.594" y2="475.278"/>
<line fill="none" stroke="#1D1D1B" stroke-linecap="round" stroke-miterlimit="10" x1="335.231" y1="394.356" x2="382.657" y2="394.356"/>
<line fill="none" stroke="#1D1D1B" stroke-linecap="round" stroke-miterlimit="10" x1="460.031" y1="394.356" x2="382.657" y2="394.356"/>
<line fill="none" stroke="#1D1D1B" stroke-linecap="round" stroke-miterlimit="10" x1="237.578" y1="394.356" x2="219.946" y2="394.356"/>
<line fill="none" stroke="#1D1D1B" stroke-linecap="square" stroke-miterlimit="10" x1="237.578" y1="411.608" x2="219.946" y2="411.608"/>
<line fill="none" stroke="#1D1D1B" stroke-linecap="round" stroke-miterlimit="10" x1="219.946" y1="394.356" x2="219.946" y2="411.608"/>
<line fill="none" stroke="#1D1D1B" stroke-linecap="square" stroke-miterlimit="10" x1="551.195" y1="246.901" x2="611.458" y2="246.901"/>
<line fill="none" stroke="#1D1D1B" stroke-linecap="square" stroke-miterlimit="10" x1="557.683" y1="394.356" x2="611.458" y2="394.356"/>
<line fill="none" stroke="#1D1D1B" stroke-linecap="square" stroke-miterlimit="10" x1="252.617" y1="373.328" x2="252.617" y2="366.688"/>
<line fill="none" stroke="#1D1D1B" stroke-linecap="square" stroke-miterlimit="10" x1="283.008" y1="373.328" x2="283.008" y2="364.583"/>
<line fill="none" stroke="#1D1D1B" stroke-linecap="square" stroke-miterlimit="10" x1="310.818" y1="373.328" x2="310.818" y2="364.583"/>
</svg>
